<?xml version="1.0" encoding="UTF-8"?><svg id="Layer_2" xmlns="http://www.w3.org/2000/svg" viewBox="0 0 184.69 69.66"><defs><style>.cls-1{fill:#231f20;}.cls-2{fill:#731716;}</style></defs><g id="Layer_1-2"><g><g><path class="cls-2" d="m.44,35.91c-.29,0-.44-.05-.44-.29v-.1c0-.29.15-.34.44-.34h.82c.68,0,.73-.15.73-3.69V11.6H.44c-.29,0-.44-.05-.44-.29v-.15c0-.29.15-.34.44-.34l1.55-.1v-2.38C1.99,3.11,4.61,0,7.76,0c2.18,0,3.93,2.09,3.93,4.32,0,1.5-.73,2.09-1.84,2.09-1.26,0-1.89-.73-1.89-1.99,0-1.07.44-2.04.92-3.25-.24-.24-.53-.39-.92-.39-1.26,0-1.89,1.41-1.89,4.22v5.73h2.77c.29,0,.44.05.44.34v.24c0,.24-.15.29-.44.29h-2.77v19.89c0,3.54.05,3.69.73,3.69h1.5c.29,0,.44.05.44.34v.1c0,.24-.15.29-.44.29H.44Z"/><path class="cls-2" d="m17.18,36.54c-4.66,0-7.71-4.61-7.71-12.86,0-7.81,2.67-13.59,7.18-13.59,3.25,0,6.26,3.45,6.26,10.29v.19c0,1.12-.39,1.46-1.75,1.46h-7.23v1.26c0,7.81.83,11.79,4.12,11.79,2.57,0,3.88-2.52,3.88-7.33,0-.29.05-.53.34-.53h.19c.34,0,.39.24.39.53,0,5.34-1.5,8.78-5.68,8.78Zm-.68-25.57c-2.04,0-2.57,3.4-2.57,10.14h2.77c1.6,0,2.14-.39,2.14-1.99,0-5.92-.63-8.15-2.33-8.15Z"/><path class="cls-2" d="m42.55,35.91c-.29,0-.44-.05-.44-.29v-.1c0-.29.15-.34.44-.34h.58c.68,0,.73-.15.73-3.69v-15.28c0-3.01-.63-4.42-1.99-4.42-1.55,0-2.13,1.8-2.72,4.46v15.24c0,3.54.05,3.69.73,3.69h.53c.29,0,.44.05.44.34v.1c0,.24-.15.29-.44.29h-6.7c-.29,0-.44-.05-.44-.29v-.1c0-.29.15-.34.44-.34h.58c.68,0,.73-.15.73-3.69v-15.28c0-3.01-.63-4.42-1.99-4.42-1.55,0-2.13,1.8-2.72,4.51v15.19c0,3.54.05,3.69.68,3.69h.63c.29,0,.44.05.44.34v.1c0,.24-.15.29-.44.29h-6.99c-.29,0-.44-.05-.44-.29v-.1c0-.29.15-.34.44-.34h.87c.63,0,.68-.15.68-3.69V15.09c0-3.54-.05-3.69-.68-3.69h-.87c-.29,0-.44-.05-.44-.29v-.1c0-.24.15-.29.44-.29h5c.39,0,.44.15.44.63v3.25h.05c.58-2.86,1.99-4.51,4.46-4.51,1.94,0,3.69,1.41,4.37,4.32h.05c.58-2.72,1.94-4.32,4.42-4.32s4.56,2.18,4.56,6.94v14.46c0,3.54.05,3.69.68,3.69h.87c.29,0,.44.05.44.34v.1c0,.24-.15.29-.44.29h-6.99Z"/><path class="cls-2" d="m69.05,35.91c-.29,0-.44-.05-.44-.29v-.1c0-.29.15-.34.44-.34h.58c.68,0,.73-.15.73-3.69v-15.28c0-3.01-.63-4.42-1.99-4.42-1.55,0-2.13,1.8-2.72,4.46v15.24c0,3.54.05,3.69.73,3.69h.53c.29,0,.44.05.44.34v.1c0,.24-.15.29-.44.29h-6.7c-.29,0-.44-.05-.44-.29v-.1c0-.29.15-.34.44-.34h.58c.68,0,.73-.15.73-3.69v-15.28c0-3.01-.63-4.42-1.99-4.42-1.55,0-2.13,1.8-2.72,4.51v15.19c0,3.54.05,3.69.68,3.69h.63c.29,0,.44.05.44.34v.1c0,.24-.15.29-.44.29h-6.99c-.29,0-.44-.05-.44-.29v-.1c0-.29.15-.34.44-.34h.87c.63,0,.68-.15.68-3.69V15.09c0-3.54-.05-3.69-.68-3.69h-.87c-.29,0-.44-.05-.44-.29v-.1c0-.24.15-.29.44-.29h5c.39,0,.44.15.44.63v3.25h.05c.58-2.86,1.99-4.51,4.46-4.51,1.94,0,3.69,1.41,4.37,4.32h.05c.58-2.72,1.94-4.32,4.42-4.32s4.56,2.18,4.56,6.94v14.46c0,3.54.05,3.69.68,3.69h.87c.29,0,.44.05.44.34v.1c0,.24-.15.29-.44.29h-6.99Z"/><path class="cls-2" d="m85.11,36.54c-4.66,0-7.71-4.61-7.71-12.86,0-7.81,2.67-13.59,7.18-13.59,3.25,0,6.26,3.45,6.26,10.29v.19c0,1.12-.39,1.46-1.75,1.46h-7.23v1.26c0,7.81.83,11.79,4.12,11.79,2.57,0,3.88-2.52,3.88-7.33,0-.29.05-.53.34-.53h.19c.34,0,.39.24.39.53,0,5.34-1.5,8.78-5.68,8.78Zm-.68-25.57c-2.04,0-2.57,3.4-2.57,10.14h2.77c1.6,0,2.14-.39,2.14-1.99,0-5.92-.63-8.15-2.33-8.15Z"/></g><g><path class="cls-1" d="m33.89,47.83c-.53-.09-1.41.18-1.76-.09-3.17.22-6.73,0-10.03.09-2.33.18-4.84-.4-7.08.31-1.23.97-.44,2.99,1.1,2.9,0,.04-.04.04-.04.09.26-.13.53-.09.84-.13,3.04.04,7,0,10.34.04,1.54.18,5.46-.48,6.47.35.35.48.22,1.67.26,2.33-.04,1.23.04,2.42,0,3.61.04,2.73.04,3.26-2.9,2.99-2.11.09-4.27.04-6.38.04-2.24.04-4.53,0-6.78,0-1.14.13-3.34-.53-3.34,1.23-.26,9.5,1.58,6.91-8.05,7.3-.88-.09-2.24.09-3.34,0-.48,0-1.06.04-1.5-.26-.09-.13.26-.13.18-.31-.04-.09-.22-.13-.31-.04.18.09,0,.22-.09.09-.4-.44.7-.35.4-.62-.44.22-.62.22-.53-.31-.04-1.06,0-2.11,0-3.17,0-2.9-.04-6.25-.04-8.85.09-4.62,0-8.67.04-13.33.09-2.95-.84-4.18,2.9-3.96.44,0,.92,0,1.32.09.09.04.13.09.13.18.04.13.18.18,0,.26.09.09.13-.09.22-.04,0-.09,0-.57-.13-.31-.18-.18.18-.18.22-.04.18-.26.57-.09.84-.13-.04.13-.31.18-.13.31.04,0,0,.09,0,.13.09.04.18.04.13-.09-.09-.09,0-.18,0-.22.09-.22.35,0,.48-.13.18-.04.13.13.22.18,0-.31.62-.13.88-.13-.04.13-.26-.04-.26.22.09-.04.04.04.09.09.13-.09.09-.31.31-.31.13-.04.31-.13.44,0,.09-.04.22-.09.22.09.22-.26.7-.04,1.01-.13.13,0,.31-.04.22.18.09-.04.09-.18.13-.18.18,0,.26.04.4.09.44-.13.22.04.48.04.13-.18.62-.18.75,0,0,0,.09.09.13.09v-.04c-.13,0-.09-.13-.13-.13,1.28-.09,2.55.09,3.79-.09,2.99.04,5.81.04,8.89.09.84-.09,1.67,0,2.46-.04.35.09,1.41-.22,1.32.22.13-.31.62-.18.92-.22.66.09,1.28,0,1.94.04.62-.04,3.26-.26,3.43.35.53.4.22,1.28.35,1.85,0,1.45-.04,2.9.04,4.31-.22,1.19.44,3.21-1.45,3.12Zm-32.17.88c-.04.13-.13-.04-.04-.13.04,0,.09-.04,0-.09-.09,0,0-.09-.04-.13-.13.04-.13.44,0,.48l.04.18c.09,0,0-.04,0-.09.18-.04.04-.13.04-.22Zm.57.35c-.13.26-.53-.18-.13-.22.04-.13-.22-.26-.22-.09s-.09.09-.09.26c.13.13.44.35.44.04Zm-.35-.57c-.09-.04-.04,0-.04.04,0,.09.26.04.26-.04-.31.04.09,0,.04-.09,0-.04.04-.04.09,0,0,.13.22.04.13-.04-.09,0-.09-.04-.04-.09-.04-.13-.22.13-.18-.22-.13.18-.04.53-.31.22-.09.04.18.18.04.22Zm.26,17.91s-.04-.04,0-.09c.13-.09-.31-.31,0-.35-.04.04,0,.09.04.18.04-.13.04-.22.13-.31-.18.04-.18-.22-.35-.22-.18-.04,0,.22-.04.26-.04.13.09.18.13.26-.13.09,0,.26-.04.44.09.13.18-.04.13-.18Zm.44-7.83c-.13-.18-.26-.13-.31-.4-.04.22-.09.13-.26.04-.04.09.26.09.18.18-.04.04-.13.13-.04.18-.04.18-.18.31-.18.48.13-.04.13-.4.35-.31.13.09.04-.18.18-.13.09.04.04-.04.09-.04Zm-.31,8.58c-.04-.18-.18-.22-.22-.04.09.04.18.18.22.04Zm-.13-.4c0,.18.04.22.18.04-.09-.09-.13-.18-.18-.04Zm.26-20.07l-.22-.13c.09.13.18.44.22.13Zm.22,11.4c.09-.35.35.09.31.26.18-.26-.09-.4-.31-.53,0-.22.4-.26.48-.48-.22-.04-.35.44-.66.35.13.13-.09.22-.13.13t-.09-.04c.13.13.09.18,0,.26.09.31.4-.62.4.04Zm-.31,9.11c.13,0,.18.04.22.18.13-.09-.18-.44-.22-.18Zm.53-12.15s-.09.13-.18-.04c-.04.18-.13.09-.26.09.13.18.35.09.44-.04Zm-.4,1.1c.09.04.18.13.26.22,0-.18-.09-.26-.26-.22Zm.09-7.3c.22.13.09.4.31.22,0-.04-.09-.22-.04-.26.09-.04.04-.13.04-.18-.09.04-.09.13-.18.22.04-.22-.26-.13-.13,0Zm.18.4c-.09.04-.09-.04-.18-.04.04.44.35.13.18.04Zm.31,18.09c-.04-.09-.4-.04-.35.13l.31-.13c0,.09.04.04.04,0Zm-.04-8.8c-.09.26-.22-.04-.31.18.13.18.4.22.53-.04-.09-.04-.18,0-.22-.13Zm-.09-9.99c0-.09.09-.18.04-.26-.18.04-.18.13-.04.26Zm-.09,7.75c.04.13.31.09.18-.09-.04,0-.13.04-.18.09Zm.09-7.35c.22.13.4.22.4.48.18.18-.13-.7-.4-.48Zm.4-.31h-.09c.09-.13,0-.26-.13-.22-.18.13.18.44.22.22Zm.31,15.93c-.22.13-.22.18-.57.18.09.18.4-.04.57.13.13,0,.04-.22,0-.31Zm-.18,2.38c0-.57-.13,0-.18.18-.13-.09-.18.18-.09.22.26-.09.04-.35.26-.4Zm.22-.97c-.26.04.04-.22-.13-.35-.09.09-.18.22-.31.22-.04.13.09.22.18.35.18-.18-.35-.22.09-.4,0,.09.04.31.18.18Zm-.31-17.47c.13.13.26.35.22.57-.04.13.18.31-.04.4.22.04.13,0,.22.22.04-.04.04-.09.04-.09.09,0,0,.26.13.18.13.09.26.31.35.04-.04-.18-.31.18-.44-.4,0,.04-.04.04-.04.09-.04-.09-.09-.7.04-.4.04-.18.13-.13.18-.31-.13.04-.13-.09-.18-.18.09.04.09.09.18.13-.04-.18.4-.35.09-.4-.04,0-.13.09-.22-.04v.09l-.09-.09c.09.31-.4.18-.13.13t.04-.09c-.09-.53-.13.09-.35.13Zm.13,16.85s.04.09.04.13c0-.09,0-.26.04-.31.09-.09,0-.18-.04-.22-.18.09-.04.26-.04.4Zm.44-1.54c-.26-.35-.7.18-.13.18.04-.04.18-.09.13-.18Zm-.22-12.5c-.18.18.09.18.04-.04-.04-.09-.22,0-.04.04Zm.26-9.29c.13-.04.13-.22.13-.35-.04.04-.26.31-.13.35Zm.48,22.09c-.09-.09-.13.13-.31,0-.09.04-.04.35.13.31.18,0,.04-.22.18-.31Zm.26-15.14c-.18.13-.26.04-.26-.13-.09.09-.13.09-.22,0,.26-.09-.22-.18-.09.13.04-.04.09-.04.09.04.04.18.44.13.48-.04Zm-.48-10.34c.13.09.09.18.09.26.18.13.18-.35-.09-.26Zm.84,9.55c-.13,0-.26,0-.35.13-.13.22-.62-.09-.31.18,0-.13.04,0,.09,0s.09,0,.04.09c-.04.04-.18-.04-.26-.04s0,.09.04.09c.35,0,.7.31,1.01.22.09.09.18.48.22.26-.09-.22.09-.13.18-.26-.18,0-.13-.22-.09-.31.04.09.09.18.22.18-.04.09.04.13.13.13t-.04-.09s.04-.13.13,0c.09-.04.04-.18,0-.22-.09.13-.18.04-.22-.09,0,0,.13.04.09-.04.18.04.13-.13.09-.22-.22.13-.18,0-.35,0,0,.22-.04.04-.22.13q.09,0,.13.04c-.13.13-.13-.13-.31.04,0-.04-.04-.13,0-.13-.09-.04-.13-.22-.22-.09Zm-.66,2.16c-.09.09.04.22-.13.26.22.04.22-.13.13-.26Zm-.09-2.73c.04.13.09.13.22,0-.09-.13-.31-.26-.22,0Zm.04,2.11c-.13.09.13.44.18.31.04-.04.09-.09.09-.18-.13.04-.13-.09-.26-.13Zm.18-11.09c.09-.13.22-.09.35-.13-.04-.18-.22-.04-.31-.04-.09-.04-.13.13-.04.18Zm.35,26.18c.09-.31-.26-.18-.4-.09.09.09.26-.04.35.04-.09.18.09.18.04.04Zm.13-3.92c-.09-.04-.04-.09,0-.13,0-.13-.09-.48-.31-.44,0,.04-.09.09,0,.13-.04.09-.09.22.04.22s.04.13.04.22c-.04.35.44.35.22,0Zm.75-10.25c.09.09-.09.04-.09.22.13,0,.18-.13.31-.13,0,.04-.26.35-.04.31-.09-.31.35-.04.18.04,0,.13.26.09.13-.09t.09.04c-.09-.35.13-.09.13-.26,0-.13.26.04.18-.18-.18-.09,0-.18-.18-.22-.09-.04,0-.18,0-.26.04.13.09.13.13.04h-.09c.22-.4-.13-.18-.18.09-.13-.18-.22-.26-.18,0-.22-.04-.22.22,0,.22.09.13-.09.35-.13.13,0-.04-.09-.13-.13-.18-.13.09-.18.18-.35.04.09.13,0,.26-.13.09q.09-.09,0-.18c.18,0-.09-.48-.09-.57s-.09-.04-.13,0c0-.04,0-.09-.04-.18.04,0,.09.04.13.04-.04-.09.09-.35-.04-.35.04,0,.09,0,.13-.04l-.35-.09c0,.09.04.18.04.31.09-.22.09-.04.13.04-.09-.09-.13.04-.13.13s-.13,0-.22.04c-.09,0-.18.22,0,.09.22-.18.09,0-.04.13.13-.04.13,0,.22.09,0-.18-.09-.31.18-.22.04.22.09.18.04.44.04.13-.18,0-.18.13,0,.18.35.31.04.31l.13.13c-.04-.18.13-.04.13-.18.13.04.04.22.04.35.18-.18,0-.31.35-.35Zm-1.01-1.63c.13-.04.09.09.18.13.09-.22.04-.4-.18-.13Zm.35,1.85c-.13-.22-.09-.09-.22-.09-.04.09.26.44.4.18h-.09c-.13.13-.31-.13-.09-.09Zm.26,1.58s.04.04.04.09c-.13-.04-.18,0-.09.13-.18.04-.26.22-.26.35.13,0,.09-.13.13-.18.22-.04.44-.31.18-.4Zm-.13-6.56s.04.04.04.09c-.04.09.13.22.18.18.04-.09-.09-.35-.22-.26Zm.09-.84c.13.09-.04.44.13.18.22.26.04-.22.26-.26-.13-.13-.31.13-.44-.09,0,.09-.09.13.04.18Zm0,3.79c-.13-.09-.04-.18.09-.22.13.09.09.35-.09.22Zm.04-9.02s.09.04.13.09v-.13s.04,0,.04.04c.04-.13,0-.22-.09-.22-.35-.04-.04.66-.09.22Zm-.04-.57q.18,0,.18.09c.09-.04-.04-.22.13-.18,0-.26-.22-.09-.31.09Zm.18,8.05v-.4c-.26.04-.13.22,0,.4Zm-.04,2.24c-.18,0-.04.48.09.31-.09-.09-.04-.22-.09-.31Zm.31.84s-.13-.09-.13-.22c-.18.13.18.44.13.22Zm.22,15.62c-.31-.26.13,0-.18-.66.04.13-.18.04-.18.13.13.04.26.48.09.26-.04.04-.04.13.04.22q-.09-.04-.13-.04s.13.18.18.09c.09-.04.09.09.18,0Zm-.26-14.26c.18,0,.13-.09.26-.18.04,0,0-.09,0-.13l-.31.13c.18.04.09.09.04.18Zm.22-2.02c-.04-.09-.13-.04-.04.04-.13.04-.18.18-.09.22-.09-.22.18-.09.13-.26Zm.09-.79s-.04.09-.04.18c-.13,0-.04-.26-.18-.18.09.26.4.26.22,0Zm-.09,15.27c0-.18.13-.18.22-.09-.13-.31-.22-.09-.31.13-.09.09.13.35.09.13-.13,0,0-.09,0-.18Zm.31-11.79c-.09.09-.18.09-.26,0,0,.09.04.09.04.18-.09,0-.13-.09-.18-.13-.09.4.35.22.4-.04Zm-.04,11.13c-.22-.22,0-.26-.35-.18.04.09.22.04.26.18,0,.04.04.04.09,0Zm-.31-16.02c.04.22.04.26.13.31.09-.13-.09-.22-.13-.31Zm.84,17.07c-.09-.04-.13-.04-.13-.13-.09-.18-.18.18-.26.18,0-.09,0-.18-.13-.22-.04.13.09.26-.13.26-.4.04.09.09.22.04.22.04.18-.13.44-.13Zm-.48-20.51c0,.09.04.18.09.26-.09,0-.09.04-.13.13.04,0,.09,0,.09.04.04.18.18,0,.26.04-.18-.18-.18-.48-.35-.66-.09.04-.13-.04-.18-.13-.09.18.26.13.22.31Zm-.09,5.77c-.09.04-.09.09-.04.18.13-.22.13-.31.31-.13-.04-.13-.18-.44-.22-.13.04.04,0,.04-.04.09Zm2.51.04c-.18-.13-.31-.09-.22-.35-.31.22-.13.13,0,.35-.09-.13-.26-.04-.31-.22-.04.04-.13.09-.18.09-.13,0-.7.04-.62.22h-.09c.04.13.04.22-.04.22-.04-.09,0-.26-.09-.31-.04.09.04.18,0,.26-.04-.04-.09-.09-.09-.18.04-.26-.26-.4-.18-.7-.09-.09-.26,0-.35-.18-.09.53-.09.04-.35.31.09.09.4.13.31.31-.04.04,0,.26.04.13,0-.04,0-.13.09-.04.44-.26.09.31.35.09.04.18-.18.31,0,.44.13.13.13-.18.26-.13-.04.09-.13.13-.13.22.09-.13.18-.09.22.04.18.22-.18.18-.18.35.31.44-.26.22.09.53.04.04.09.09,0,.13-.04-.13-.18-.09-.26-.04-.13,0-.09.09-.09.13.13,0,.09.09.09.18-.31.4.04-.09.13.4,0-.09.13-.13.04-.22-.13-.09.09-.18.18-.04,0-.13.09-.22.18-.09.09-.09.09-.26.26-.22-.04-.04-.09-.09-.13-.04-.18.18-.35-.04-.22-.22-.13-.13,0-.31.09-.09,0,.04.04.13.09.13.09-.04.09.09.18.09-.22-.48-.18-.66.4-.53-.09-.13-.09-.35.09-.13.04-.18-.09-.31-.04-.48.18.22.26-.04.18-.04-.13.09-.13-.09-.18-.18-.13.09-.09.18-.13.26-.09-.09-.18-.4.09-.31l-.13-.13c.31-.18.75.4.53.66.04.18-.09.22-.26.22,0,0-.04.04-.04.09,1.1-.09.09-.84.44-.97Zm-2.33-1.63c-.04.09-.13.18-.13.31.13-.09.31-.13.13-.31Zm-.09,4.27c.26.04.31.09.26.18q.18.04.13-.13c0-.09.09-.18,0-.26-.13.35-.18.09-.4.22Zm0,1.98c.18-.09.09.13.18.18.13-.13-.04-.35-.18-.31,0,.04.09.04,0,.13Zm.4-1.5s.18-.13.13-.18c-.09-.04-.22.09-.35.04-.04-.04.04-.26-.09-.18s-.09.4.04.26c.13,0,0,.13.26.04Zm-.13-1.1s.04-.04.04-.09c-.26-.35-.31-.22-.04.09Zm.09-8.19c-.09.09-.13.04-.13-.04l-.13.22c.18-.04.04.31.26-.18Zm-.22-4.71c.22-.13-.04.26.31.09l-.04.04c.31-.09.31.13.22.31.18-.04.22.04.31.18-.04-.18.22-.22,0-.44,0,.09-.04.13-.04.18-.09-.26-.22-.04-.13-.26-.13,0-.22-.18-.31,0,0-.09-.09-.04-.13-.09.09-.22-.22-.26-.18,0Zm.44,2.64c-.04-.13-.13.13-.22.09-.13.04.04.35.13.35-.04.13.04.22.04.35.09-.13.26-.4-.04-.35l.09-.13c-.31.22-.09-.22,0-.31Zm-.26,9.55c.22-.18.18-.13.35-.04-.04-.26-.35-.31-.35.04Zm.26,12.67c0-.26-.31-.13-.22.09.09.26.53-.26.22-.09Zm-.13-14.57s.18.18.09.18c-.18,0-.26-.09-.09-.18Zm0-5.28s.09-.04.09-.09c-.09-.13.04-.18-.04-.31-.13.09-.04.26-.04.4Zm.26,10.08c.09-.13.31.04.22-.26-.31.31-.22-.18-.48.09.13.04.18.09.13.22l-.09-.13c-.09.22-.09.31.13.31,0,.09.04.18-.09.18.09.13.22,0,.18.22.13,0,.09-.13.09-.18.09-.18-.18-.26-.09-.44Zm-.13-9.9c0,.26-.31.09,0,.26-.18.09.09.18.04.31-.13.31-.04.31.22.35-.09.13-.18.22-.18.4-.09.22.13.26.26.44-.09-.57.04-.35.09-.7h.13c-.22-.57-.04-.22.13,0,.18-.09,0-.18.09-.31-.22-.04-.22.09-.26-.18-.13-.09.09-.13-.18-.04,0,.13.09.26.04.35-.13-.04-.35-.26-.22-.44.09,0,.09-.04.04-.13-.09-.09.18-.13.09-.26-.18-.35-.18.18-.31-.04Zm1.28,8.71c.35-.22.09-.18.18-.35.13-.09,0-.18-.13-.22,0,.13.13.22,0,.31-.04-.4-.13-.04-.09-.4-.13,0-.04-.13-.13-.18-.09.04,0,.22-.09.18s0-.13,0-.22c-.09-.22-.44.13.04.4,0,0,0-.04.04-.04,0,.26-.31.13-.26-.04-.09.18-.35.04-.26.18.18.09-.35.4-.13.09.13.13.04-.22-.04-.26-.09.18-.09.09-.22,0,.04.22-.13.13-.22.4.26,0-.09.26-.04.35.18,0,.13.31.26.22,0-.09,0-.18-.09-.18,0-.09-.04-.22.13-.13,0-.09-.09-.09-.13-.18.04,0,.18-.09.22-.04-.04.04-.09.35.04.35-.13-.22.22-.09.26.04-.09,0-.04.13-.13.13.18.13-.13.09.09.4.04-.09-.04-.18.04-.18.09-.04.09.04.18.09.04-.48.31.31.31-.22.4-.31.04-.26.18-.48Zm-1.28.79c.31-.04.13-.48-.09-.4.04.13.22.26.09.4Zm0-3.08c0,.09.04.09.13.09.26-.18-.13-.53-.18-.26-.04.09.04.13.04.18Zm0-2.02c.22.18.04-.31.35-.22-.04-.22-.13-.22-.31-.13-.04.09-.09.13-.09.22.09-.04.18.13.04.13Zm.48-7.35s-.13.04-.13-.04c.04-.18-.18-.22-.26-.09.09,0,.22-.04.18.09-.04.13-.26.04-.26.18.31-.04.26-.13.31.22-.22-.04,0,.26-.22.22.22.57.13,0,.22-.22.18-.13.04.18.13.22.09-.09.09-.22.04-.35.18.09,0-.09-.04-.13.04,0,.13,0,.04-.09Zm-.26-.66c.18,0,.13-.48,0-.22-.04-.09-.09-.26-.18-.13,0,.13.18.18.18.35Zm.13,25.26c-.18-.09-.35.18-.22.31.09-.09,0-.18.13-.09.04-.04-.04-.18.09-.22Zm0,1.28c-.13-.04-.31-.04-.22.13.09.04.13-.09.22-.13Zm.09-3.12c-.09.04-.09-.18-.04-.22-.13,0-.26.09-.22.22.18.18.4-.09.53.13h.04c-.09-.09,0-.13.04-.22.09-.22-.26,0-.35.09Zm.88-9.46c.18.04.04-.13.13-.22-.18.04-.09-.09,0-.09-.04-.04-.04-.13,0-.18-.31.18-.09-.09-.48.13.13-.22-.04-.04-.09.04.04-.13.09-.22-.09-.22.04-.22.31,0,.44,0v-.04c.22-.09-.18-.22-.26-.22,0,.04.04.04.09.09-.53-.09-.18.4-.48.26.18-.04.09-.22-.04-.09-.09.18-.18.13-.35.18.09.13.31,0,.31.22.04-.22.13-.22.35-.22-.09.09-.09.13-.09.22.09,0,.18-.18.31-.13,0,.04.04.04.04.04.13,0,.26.13.22.22Zm-1.06-2.99s.09-.04.13-.09c.04.4.04.18-.18.26-.13-.18.09-.4.04-.18Zm.09-7.83c-.31.04-.09.57-.04.22-.13-.13.13-.13.04-.22Zm0,5.9c.04-.26.22-.62.18-.88-.04.13-.13.04-.22.18.35-.13-.04.53.04.7Zm.13-7.44c-.13,0-.04.26,0,.31.09-.04.09-.18.04-.22.04-.22.18-.04.31,0,.09-.18-.26-.22-.35-.09Zm.35,4.53c-.13-.09-.18-.13-.31,0,.13.13.18.22.31,0Zm-.04,6.34s-.18.09-.22,0c.13-.13.26-.26.22,0Zm-.09-5.99s-.04.09-.09,0c-.18.18.31.22.09,0Zm.4,2.82l-.09.09s.04.22,0,.18c-.09-.04-.04-.18-.18-.18.04.04-.09.22.04.18.04,0,.04.04.04.09-.13.22-.13-.26-.22.13-.31.04.09-.26.04-.35-.04-.18.22-.22.35-.13Zm-.48-11.35s.13.13.18.09c0-.18-.13-.26-.18-.09Zm.48,14.17c.09.09.13.31-.04.26.09.09-.04.18-.09.09-.13-.13-.13-.31-.26-.4.09-.26.26.09.4.04Zm-.35-4c0,.09,0,.44.13.31h-.09c.18-.09.04-.26-.04-.31Zm.04-7.88c.09.09,0,.13.13.18h.04c0-.31-.26-.35-.18-.18Zm.13.53c-.09.04.09.44.26.4-.09-.09-.18-.13-.04-.22-.13,0-.13-.09-.22-.18Zm.13,5.19c-.31.4.22.09.04.48.13,0,.13-.09.13-.18.18.13.18-.09.18.22.09-.09.13-.04.18.04.04-.09.04-.18.13-.22,0,.13.18.31.22.18.09-.09.04-.04-.04-.09.04-.31,0-.62-.13-.88.09-.18,0-.31-.09-.4-.04.09-.04.13-.13.09l.04-.04c-.4-.35-.09.26-.18.48.04,0,.09-.13.13,0,.13.09-.09.04-.13.09.09.04.13.04.09.13.09.18,0,.26-.18.13,0,0,.04,0,.04-.04-.09-.04-.13.04-.18.09-.04-.04-.04-.13-.13-.09Zm-.09,1.36c.13.04.09.18.13.26.13.22.13-.35.31-.09t.04-.09l.13.09c0-.18-.04-.31,0-.44.13-.18-.18-.13-.09-.35-.26.09.13.26,0,.44.04.18-.4.18-.53.18Zm.09-7.26c.04.22.31-.09.44-.09-.18-.13.09-.31.13-.13.09-.09,0-.44-.13-.26,0,.04-.09.04-.13,0,.04.09.04.31-.04.22,0-.04-.09-.13,0-.18,0-.04-.04-.09-.09-.04.04.13-.09.13-.09.22.22-.09.09.31-.09.26Zm.18-.57c.18-.04-.09-.31.09-.35.04.13,0,.26.13.18,0-.04-.04-.26.04-.18.13,0,.04-.13,0-.18-.04.04-.09.09-.09.13-.13.22-.09-.09.13-.22-.09-.04-.18.04-.26-.04l-.04.04s0,.04-.04.04t0,.09l-.04.18c-.09.13,0,.26.09.31Zm-.09,5.5q.09,0,.13-.04v.13c.18-.26-.04-.4-.13-.09Zm.18-3.83c.09,0,.35-.09.22-.22-.04.04-.04.13-.09.04-.09-.09-.18.13-.13.18Zm.04,12.19c.04.13.22-.09.18-.18-.04-.18-.13-.04-.22.04,0,0,.13.04.13-.04h.04c.09.09-.09.09-.13.18Zm.13-4.93c.04.09,0,.13.04.22.09-.31.04-.04.18-.18-.04-.04-.13,0-.13-.09-.09-.31-.44.13-.09.04Zm-.13,5.68c.22.09.44.22.66.22.09-.18-.57-.31-.66-.22Zm.48,9.2c-.04-.13-.35-.18-.31.04.04.04.09.09.13.04.09.04.13,0,.18-.09Zm-.04-22.88c-.18.04-.22.09-.18.22.09-.09.18.09.22.13-.09.09,0,.13,0,.22.04.04.13.04.09-.04l.04-.04c.09.04.13-.04.13-.13.09-.13-.22-.18-.13.04-.26-.04.13-.31,0-.35-.13,0-.18-.13-.26-.13-.04.04.04.09.09.09Zm.18,13.2c.04-.09.09-.09.18-.04-.22-.13-.18-.31-.18-.53-.09.13-.09.18-.26.18-.13,0,.09.09.13.09.22,0,0,.26.13.31Zm-.26.4s.04,0,.04.04c.31-.22-.04-.57-.04-.04Zm.53-4.93c-.13.13-.22.22-.35.04-.09.09.18.31.31.26,0,.04.04,0,.09-.04-.09-.04,0-.18-.04-.26Zm-.35-9.29c.09.04.09.09.09.22.04-.04.04-.13.09-.13.09.09-.18.31.04.35,0-.22.09-.18.22-.09,0-.13-.04-.13-.13-.18-.04-.09-.04-.22-.09-.31,0,.13,0,.18-.22.13Zm.09,7.88c-.09-.09-.04.22-.09.26.22.04.13-.13.09-.26Zm-.04,5.02c-.09.04.04.09.04.13.09-.26-.18-.79-.04-.13Zm.18-3.12c.09-.04.31.04.31-.13-.13.13-.26.09-.44.09.04.04.04.13.13.04Zm.13.4c.04-.09-.04,0-.09,0,.09.35-.26-.35-.04.4.18.22,0-.04.04-.09.18-.09.09-.18.09-.31Zm-.09,3.96s0-.09-.04-.13c-.09.04-.04.18-.04.26.18,0,.22-.31.09-.13Zm.35-5.41c-.09-.04-.4-.4-.44-.22,0,.09.09.09.13.09.13.18-.13.35.26.22.09.09.22-.18.04-.09Zm-.31-5.81c0,.13.13.09.18,0-.04-.09-.18-.13-.18,0Zm.44,11.31c-.09-.09-.26-.13-.18.04h-.18c.09.09.4.18.35-.04Zm-.09,1.58c-.04-.13-.04-.35-.13-.44.09.18-.35.53.04.26-.04.09,0,.22.09.18Zm-.09-3.17c.09,0,.22.04.22-.09-.18,0-.4.04-.31.22-.18.18.09.26.09.48,0,.09.04.22.13.13.04-.13-.09-.18-.04-.31l.13.09c0-.22-.04-.13-.18-.18.04-.09.18-.09.13-.22-.09.09-.09-.04-.18-.13Zm.18,1.94c-.09,0-.18-.04-.22-.13-.04.18-.13.22,0,.35,0-.18.13-.13.22-.22Zm-.26-13.69c.22-.18.18-.35.09-.57-.13.18-.04.4-.09.57Zm.04,10.83c.4-.22.57.18.48-.26-.09.22-.35.04-.48.26Zm.57-2.77c-.09-.04-.26-.22-.31,0-.04.09-.18.04-.13.18,0,.09.22.26.18.04,0-.09.09.04.09.09-.04.31.22.13.4.13-.04-.04-.22-.04-.13-.18,0-.04-.22-.18-.04-.22.13.04-.04-.44-.04-.04Zm0,3.08c-.04-.13-.22-.09-.09-.26-.18.09-.18.26-.31.4.09,0,.22-.18.26,0,.04.13-.13.31-.04.35.18.04-.09.31-.09.44.09,0,.13-.18.22-.04.04.04.18.13.18,0,0-.09-.13-.22-.04-.26.35-.26-.04-.4-.09-.62Zm-.35-12.98c-.09.09,0,.18.04.22.26-.04.04-.04.09-.26-.13,0-.04-.04-.04-.13-.18,0-.09.09-.09.18Zm.44,26.8l-.04-.18c-.09.09-.31.13-.31.31,0,0-.04.04-.04.09h.09c-.09.09-.04.18,0,.31.04-.18.26-.31.22-.48,0-.04.04-.04.09-.04Zm-.35-14.52s.18-.04.18-.04c.18-.26.13-.35-.09-.13.04.09-.04.09-.09.18Zm1.1,12.94c.09.22.22.22.13-.04-.09-.18.13-.35-.04-.53-.13-.04-.35.13-.35.26,0,.09-.18,0-.22-.04-.09-.13-.13.04-.26-.09-.13.04-.13.4-.18.09-.09.09-.13.13-.18.22.44-.09.04.22.4.18-.18-.13.26-.22.4-.22,0,.13-.09.18.04.22.04.04.09,0,.13,0,.09.09.13.04.13-.04Zm-.79-11.04c.04-.22-.31-.04-.18.13.04-.13.09-.09.18-.13Zm-.18-2.86c.09-.09.13-.13.18-.09,0-.09.04-.18.04-.26-.13,0-.04.22-.18.18-.09-.04-.04.09-.04.18Zm.09,4.31c.18.18.09-.22.22-.09,0-.13.04-.4-.13-.31.04.13,0,.26-.09.4Zm.4-16.68s-.04.13-.09.13c.18.09.22.04.13-.13,0-.04,0-.09-.04-.09-.09.04-.09-.04-.13-.09-.13.04.04.18.13.18Zm1.19,16.64c-.04-.09,0-.09.09-.13.09-.09-.31,0-.26-.22-.09,0,0,.18-.09.26-.13,0-.18-.09-.18-.22-.04-.22-.31-.35-.31-.62-.22.13,0-.35-.18-.31-.04.13.09.18,0,.26-.18.22.18.18.09.35.09.04.13.09.13.18-.09,0-.04.22-.04.26.09.13,0,.09-.04.09.09-.22-.26-.31-.22-.18-.04.09-.09.09-.18.09.13.04.18.09.26.13.04,0,.04-.09.13-.04.04.09.13,0,.18.04-.04-.13.09-.18-.04-.18,0,0,.04-.04.09-.04.04.13,0,.22.13.26-.09,0,0,.13.04.04.04-.13.31.09.4-.04Zm-.88,1.1c.13-.04.04-.13,0-.22-.13,0-.13.22,0,.22Zm.04-17.56c.09.18.13-.04.18-.13-.04-.04-.22.09-.18.13Zm0,14.52c.09.13.13.13.22,0-.04-.13-.22-.18-.22,0Zm.13-12.72c.09.18.18,0,.18-.13-.09-.04-.18.04-.18.13Zm.13,15.49v-.04c-.22.44,0,.57,0,.04Zm0-7.35c.13-.09.13-.4.04-.48-.09.09-.18.13-.09.26.09-.4.13.04.04.22Zm0,19.89c-.13.09-.09.26.09.26.26,0,.09-.26-.09-.26Zm.26-29.4h-.13c-.26.18,0,.4.13,0Zm.13,16.72c-.09-.04-.13-.18-.26-.13-.13.18.18.31.26.13Zm-.13,12.85c.04.09.04.13.09.18.22-.09.04-.4-.09-.18Zm.09-15.62c.09.04.18,0,.22.09.09-.04.09-.22.22-.13-.04-.04-.13,0-.13-.13-.09-.04-.04.18-.31.18Zm.48.97c0,.26-.26.22-.4.4.4-.18.09.13.4.22.04-.04-.18-.13-.09-.22.04-.09.04-.22.18-.22.09,0-.13-.18.04-.26q-.09,0-.13.09Zm-.31,4.18c.09-.31.31-.35.26-.48-.22-.26.26-.75.09-.88-.18.44-.26.88-.35,1.36Zm.09,10.43c-.04.09-.13.18,0,.22.18,0,.13-.13,0-.22Zm.7-.88c0-.26-.31-.13-.22,0,.09.04.04.09,0,.13-.09.04-.13.13-.09.22,0,.18-.18.35-.26.48.26.04.13-.26.26-.18.13.13.26-.09.18-.18-.13-.18,0-.35.13-.48Zm-.09-12.67s-.04-.09,0-.18c.18-.04-.13-.13.04-.22-.26,0-.09.31-.04.4Zm-.09-1.01c.18-.04.31-.18.09-.35-.04.09-.09.26-.09.35Zm0,0c0,.09.04.09.18.04-.04,0-.09,0-.18-.04Zm.26,10.47c-.09-.04-.22.04-.22.18-.04.4.4,0,.22-.18Zm-.04-1.45s.04-.04.04-.09c.04.31.04-.18.18-.22.09-.09-.04-.13-.13-.18-.04.13,0,.26-.04.35-.09.04-.04.09-.04.13Zm.79,5.5c-.22-.13-.44-.09-.66,0,.09.22.18,0,.26,0,.18,0,.26.09.4,0Zm.13-27.68c-.04-.13.13-.18.09-.31-.04.04-.18.09-.18.18,0,.04.04.18.09.13Zm0,.13c0,.13.18.48.26.22,0-.04-.09-.13,0-.18-.04,0-.04-.04-.04-.04-.13.13-.04-.09-.22,0Zm.04-2.55c.22.04.09.22.22.35,0-.18,0-.44-.22-.35Zm.13,16.5c-.09-.18-.18.22-.04.26.09-.09-.13-.26.04-.26Zm.26-5.19c-.26-.44-.4.31-.26.35,0-.22.18-.22.26-.35Zm-.18.84c.09.13.13.13.22.09.09-.26-.09-.26-.22-.09Zm.26-10.65l.53.4c-.04-.18-.35-.4-.53-.4Zm.22,24.42c-.13-.04-.13.09-.18.18-.04.18.57-.13.18-.18Zm.26-15.84s-.09.18-.26.09c.04.22.35.13.26-.09Zm1.32,7.97c0,.13.09.13.18.04-.04-.13-.13-.13-.18-.04Zm2.38-13.42c-.18,0-.31-.22-.48-.04-.22.18.04.35.18.31.04-.13.13,0,.22,0,.18.04.31-.26.09-.26Zm.53,15.67c.13.26.26.48.35.7-.04-.18-.18-.57-.35-.7Zm1.19-2.55c.13.04.18.18.31.22,0-.09-.22-.09,0-.22-.18-.04-.26-.04-.31,0Zm.84-11.88c-.09.09-.09.22.04.18.09-.04.09-.09-.04-.18Zm0,13.29c.09,0,.04-.18.04-.22-.04-.09.09-.18,0-.26-.13.09,0,.35-.04.48Zm3.7-5.28c.09-.09.13-.18.18-.26-.04,0-.09.04-.09.04,0-.26-.22-.04-.09.22Zm2.2,5.19c.18-.04.13-.18,0-.22-.18.04-.18.22,0,.22Zm.97-17.69c0,.18.22.13.22,0,.04-.18-.22-.13-.22,0Zm.97-.18c-.04-.13-.22-.09-.22.04.04.13.22.04.22-.04Zm.53,17.51c.13-.13-.09-.35-.13-.53-.04.18.13.31.13.53Zm.7-18.39c-.04-.13-.13.18-.18.22.04.18.22-.09.18-.22Zm.04.57c-.09-.09-.18-.09-.18.09.31-.22.18.4.44.31.53.31-.13-.18-.26-.4Zm1.72.04c-.18.04-.31.18-.09.22.13.04.18-.18.09-.22Zm2.55,2.6c-.13-.13-.22.09-.31.13.09.13.31.04.31-.13Z"/><path class="cls-1" d="m51.23,68.43c-.09.48-.7.4-1.1.44-.4-.04-1.01.18-1.19-.18-.13.31-.66.13-.92.13,0,.04.04.04.04.04-1.14-.04-2.42.22-3.52-.09-.26-.13-.44.26-.7.04-.22-.09-.35-.31-.57-.44-.13-.13-.4-.13-.53-.31-.04-.22-.31-.35-.35-.53,0-.09-.09-.18-.18-.26-.09-.04-.22-.04-.22-.22-.04,0-.09-.04-.09-.09-.09-.22-.4-.22-.22.04.04.04.31.13.18.22-.13.13.18.18.04.26.04.26.4.31.57.44,0,.26.13.18.18.44.09-.09.22-.09.22.04.04.09.18.13.13.26q.18.18.35.04c-.09.13.04.13.13.18-.26-.04-1.14.04-1.06-.09-.09-.13-.18-.04-.18-.18-.18-.53-.22-.09,0,.18t-.09-.04c.09.26-.48.09-.66.09-.13.04-.09-.13-.13-.22-.04-.4.35.13-.04-.7-.04.13,0,.31-.04.48h.09c-.09.44.13.57-.57.35-.57.04-1.63.35-1.89-.35-.31.44-.62-1.14-.31-1.28-.09-.22-.18-.04,0-.26-.44-.88.13-2.42-.18-3.48.22-4.84-.18-9.72.13-14.52,0,.04-.04.04-.09.09.04-2.2-.04-4.36,0-6.56.09-.66-.18-1.54.18-2.02-.09.04-.22.04-.18-.09.04-.22-.13-.48.09-.62-.09,0-.09-.09-.09-.13-.09-1.06.79-1.58,1.76-1.45.26.09,1.1-.09,1.14.09,0,.13.09.22.18.26-.18-.26.22-.09.09-.26-.13.04-.13-.04-.13-.13.26-.09.13.22.31.22,0-.13.26-.22.31-.04.04-.09.04-.18.18-.13.26.09.48-.09.7.04.53-.04,1.19,0,1.76-.04,1.54.04,3.48-.18,5.06.13-.13-.22.48-.04.66-.09.22-.04.4.04.26.31.13.18-.04.53.18.66-.18-.22.18-.44,0-.62-.09-.04-.13-.35.09-.26.18,0,.18.31.35.18.13-.04.22.4.09.18-.04.04-.04.09-.04.13-.18-.22-.53-.09-.26,0,.13-.09.26.18.4,0,.18.22.22.66.09.97.13.09-.04.35.13.31-.13.35.09.75-.04,1.1-.09.04.09.18-.04.26q-.04-.18-.18-.22c.18.22-.18.18-.09.4-.04-.04-.04-.09-.13-.09,0,.09.13.13.04.26.04.04.31.26.26.04-.22-.04-.13-.48.09-.31.04.04.09.26-.04.35.26.31,0,.79.09,1.14-.04.4.18,1.06-.13,1.32.35,0,.09,1.94.13,2.29,0,.18-.18-.04-.18.13-.09.13-.13-.04-.13-.09-.18.22.18.18.31.09.09.7,0,1.45,0,2.2-.04,1.5.09,3.7,0,5.37,0-.09-.13-.13-.09,0,.18.18.09.4.09.57.04,1.19,0,2.46,0,3.56.04.26.09,1.19-.04,1.32-.22.26-.04-.4-.4.26,0-.13-.18-.09-.18,0,.13.22.35-.13.26.26.09,0,.09-.22.22-.18-.09.13-.09.4.04.44-.09.09,0,.13,0,.22-.04.13-.09.04-.09-.04-.13.35.22.31.18.53,0,.09.13.57-.04.53-.09-.09-.09-.13,0-.22-.22-.22-.48.04-.26.09.09.31.62.04.18.53-.04-.04,0-.09-.04-.13-.18.09-.18.18-.13.35l-.22-.09c0,.09.09.22.18.18.26.26.13-.4.35-.22-.09.18,0,.31-.13.44.35-.09.09.57.13.75,0,.18.18.62-.13.62.22-.31-.04-.09,0-.4-.09,0-.13.13-.18.18,0-.18-.18-.13-.31-.18-.26,0-.09.26-.18.4-.13-.13-.13,0-.09.09-.13.04-.31.13-.18.26.09-.13.26-.18.22.04.04.09.18.13.09.26,0,0-.04.09.09.04.18-.04-.04.26.13.26.18.04.66-.09.57.26-.09.09.04.18-.09.22v.04c.09.13,0,.26.04.35.13.04.04.97-.09,1.1.4.13-.13,1.72-.4,1.45Zm-12.32-3.61c0,.13.04.18.18.18l-.09-.13c.13.04.13-.04.09-.13-.04,0-.13.04-.09-.04q0-.09-.09-.13c-.13-.09-.35.09-.35.22.09-.09.26-.22.26-.04,0,.09,0,.13.09.09Zm.57-.79c.18,0,.13.26.31.22-.04-.26-.4-.44-.35-.7-.09-.04-.26,0-.31-.09.04-.18,0-.44-.18-.53-.18-.09.04-.7-.26-.53-.13.09-.13.18,0,.26.04.13.13.31.04.44,0,.13.09.22.04.35q0,.09.09.04s.09,0,.13.09c.13.13.31.18.35.4l.09-.13c0,.09,0,.13.04.18Zm-.79-3.61c.09.13.13.18.26.26,0-.13-.13-.18-.09-.26-.04-.04-.13,0-.18,0Zm.18,3.79s.04.04.04.09q.13-.13.04-.26c.09-.09.04-.09-.04-.09s.04.18-.04.26Zm.18,3.61c-.18-.18-.13.13-.09.22h-.04c.18.13.13-.13.13-.22Zm.18-1.1c-.09.18-.13.09-.22.22.13.09.35-.09.22-.22Zm-.18-18.61c.13-.04.18-.18.09-.26-.09.04-.09.18-.09.26Zm.09-6.16c.13-.09.09-.22-.04-.26-.04.09,0,.18.04.26Zm.13,24.16c-.13.13-.31.31-.04.35,0-.09.18-.35.04-.35Zm.13-1.8c-.09-.13-.04-.44-.26-.31,0,.04.09.09.13.13-.09.09-.04.22-.13.31.18.04.18-.04.13-.18.04,0,.09,0,.13.04Zm.04-24.2c.04-.09-.04-.22-.13-.22-.13.04.04.22.13.22Zm-.04-.84c-.04.22.31.13.09-.09.09-.18-.04-.04-.09-.04-.13,0-.04.09,0,.13Zm.22,1.1v.04c.13-.09,0-.22-.13-.26-.09.18-.04.22.13.22Zm0,26.01c-.04.13-.22.18-.09.26,0,.04.04.04.04,0-.09-.09.22-.22.04-.26Zm-.09-26.8c-.09.09.18.09.04.22.22-.04.13-.04.31.04,0-.4,0-.04-.35-.26Zm2.02,27.46c0-.09.04-.18.04-.26-.18-.04-.31-.18-.4-.31-.4-.13-.62-.53-.84-.84-.09-.18-.13-.31,0-.48,0-.09-.13-.22-.26-.26-.09-.04-.09-.26-.04-.4-.35.04-.09.04-.09.18-.09.31-.31-.13-.26-.31-.18.09-.09.26-.04.35s-.04.09-.04.18c.04.04.09,0,.09-.04.18.13.04.44.22.53.09.04.26.04.26.18-.04.18.31.7-.09.62-.04.18.26-.09.26.09.04,0,.09-.04.09,0,.13.04.13.44.26.31.04.18.26.04.18.22-.09.31.22.22.26,0,0,.04.09.09.09.09-.26.4.13-.09.18.22.04-.13.09-.09.13-.04Zm-1.76-27.11s-.04.04-.09.04c-.09-.18-.09.04-.09.18.13-.04.18-.09.18-.22Zm.35,26.84c0,.13-.09.22-.22.31.13.04.4-.18.22-.31Zm.26.53c0-.09-.18-.09-.09-.22-.18-.18-.18.22.09.22Zm.18.66c-.09-.18-.18.04-.22.18.09-.09.26-.04.22-.18Zm-.04-23.72c.09-.04.09-.09.13,0,.22-.35-.13-.35-.13,0Zm.44,23.85c-.09-.09-.09-.18-.22-.22.18.09-.04.48.13.35t.04-.04c.26.04.09-.53.04-.09Zm-.13-25c-.04.09-.09.13,0,.22,0-.13.09-.04.18-.09,0,0,.04,0,.04-.04-.18,0-.04-.13-.13-.18-.04.04-.13,0-.09.09Zm0,4.66c.13-.04.26-.04.44-.09-.09-.09-.4-.04-.44.09Zm.13,19.67c-.18.13-.18.31.09.35.04-.09.04-.35-.09-.35Zm.22-5.1c0,.22.04-.13.18-.04,0-.13-.22-.44-.26-.26.13.13.22.13.09.31Zm.22-21.56c-.04.13,0,.13.09.18-.09.22.13,0,.18.18.09.13.18-.04.22-.13.09-.04-.04-.04-.04-.09-.31.04-.04-.22.04-.35-.22,0-.18-.09-.31-.26,0,.18-.13.62-.22.22-.13.09.04.18.04.26Zm.09,26.8c.18.09.18.31.09.48.09,0,.18,0,.26-.09-.22-.18,0-.62-.35-.4Zm.48-26.32c-.13.13-.31.18-.13-.04-.26.04-.22.4-.26.57.18,0,.35-.35.4-.53Zm-.22,26.98c.13-.04.22.04.31.09,0-.09.04-.13.04-.22-.09,0-.04.09-.09.13-.09-.13-.22-.13-.26,0Zm.13-27.42h.22c.13-.09-.31-.26-.22,0Zm.26,1.32c.04-.09-.04-.22.09-.18.09-.13-.35-.04-.22.13.04,0,.09,0,.13.04Zm.04,20.55c-.09,0-.04.13-.04.22.13.09.4-.35.04-.22Zm.04-2.24c.13-.04.04-.31.04-.4-.13.09-.04.26-.04.4Zm.57-20.38c-.18-.04-.35.09-.44-.18,0,.26.04.13-.13.26.04.04.09-.04.18-.04.04.13-.04.13-.13.13.04.09.13.13.18.22v-.18c.13,0,.22.22.35.22,0-.09-.22-.09-.18-.26-.13-.13.04-.13.18-.18Zm.48.22c.09.22.13.7.26.79-.13-.31-.18-.75-.35-.97-.04-.04-.09,0-.04.04.09.09-.22.44-.22-.13-.13.31.09.57.35.26Zm-.31.84c.13.09.18-.09.22-.18-.04,0-.13,0-.22-.04,0,.09-.09.18,0,.22Zm.31.22h-.04s0-.18-.09-.09c-.09,0-.18.04-.18.13.18-.13.13.09.22.18.26-.09.13-.48.09-.22Zm.31,1.01c-.09.04-.18.13-.31.22.09,0,.22.09.22-.04,0-.09.13-.09.09-.18Zm.04-4c-.09-.04-.13-.04-.13.09-.22-.18-.13.13,0,.18-.04-.13.04-.18.13-.26Zm.26,4.31c-.09-.13,0,.09-.13.04-.26.09.13.31.13-.04Zm.66-1.54c-.13,0-.09-.22-.22-.18-.09.04,0,.13.04.18-.18.09-.18,0-.18-.13-.09.09-.13.31,0,.26.04-.04.18-.04.18-.13.04.04.22.09.18,0Zm-.31.62c.04-.18-.04-.18.18-.26q-.13,0-.13-.09c-.26-.22-.13.26-.04.35Zm.31,10.21c-.13-.18-.18-.35-.35-.44.04.13.18.48.35.44Zm.48,8.32c0-.4-.18.26,0,.4.09-.18-.09-.22,0-.4Zm.35-1.23c-.04.09-.18.18-.13.31.09-.04.35-.26.13-.31Zm.53-17.6c-.04-.22-.09-.53-.22-.18-.04,0-.04-.04-.04-.04-.04.18.04.26.26.22Zm.09,16.42c-.04-.18,0-.4-.13-.48,0,.13,0,.48.13.48Zm.26,5.24c-.13-.22-.22-.13-.26,0,.09.04.18,0,.26,0Zm.31-1.32c0-.13-.04-.04-.13,0,0,.13.26.18.13,0Zm.48,2.82c-.13,0-.44.04-.4.22q0,.13.09.04c.09,0,.13-.04.13-.13-.04,0-.09.04-.09.09,0-.18.22-.22.18,0,.13.04.13-.18.09-.22Zm.09-.79c-.13.31-.13.4-.09.44.04-.18.18-.31.09-.44Zm.66-11.4c-.13-.09-.22.18-.22.26.04.13.22.4.35.22-.09-.09,0-.18,0-.26.04-.13-.04-.18-.13-.22Zm-.04,7.75c-.04.09-.04.22-.18.22.35.22.35-.35.18-.22Zm.57-21.52c0-.18-.09-.18-.22-.18l-.04-.04c-.04.13.18.31.31.26.04-.04-.04-.04-.04-.04Zm.62,23.68c.18-.18-.09-.13-.09-.31h-.04s-.13.18.04.18c-.04.04-.09.04-.09.09.04.04.13-.04.18.04-.13.04-.22.18-.09.26.09,0-.04-.18.09-.13.04,0,.04-.09,0-.13Zm-.09-6.56c0,.26.35.09.44.31.09.13.09-.09.18.18.13-.09-.04-.44-.09-.22-.13-.22.26-.13,0-.48-.04.04,0,.13-.04.22-.13-.09-.04-.18-.22-.22,0,.22-.04.31-.13.04-.04.09,0,.22-.13.18Zm.22-14.96s-.09.04-.13.04c.09.13.22.04.26-.04,0-.09-.22-.13-.13,0Zm.66,22.93s-.09-.18-.13-.18c0-.04-.22-.04-.18-.13.09-.13.04-.26.13-.35-.04-.13-.31-.44-.09-.44.13.04,0-.13.04-.22.18-.22-.26-.4,0-.57-.18-.09-.22.22-.09.26.09.09.09.18.04.26,0,0-.04,0-.04-.04-.09.18-.04.48-.31.53.04.04.09.09.13,0,.09.04.18.22.13.31-.18,0-.09.48.04.44.09.13-.18,0-.18.13.04.04.18.04.22,0,.04-.18.18.04.26,0Zm-.13-24.91c.13-.09.31.04.09-.18.04,0,.18-.09.04-.09-.13-.09-.13-.13-.18,0h.04c0,.09-.09.09-.13.18s.04.22.13.09Zm-.13,1.41c0,.44.18-.26.13-.4-.18,0-.04.31-.13.4Zm.31,25.04h-.22c.04.18.26.13.26.31.13-.13-.13-.18-.04-.31Zm.09-25.92s-.09.04-.09.09c-.04.13-.35.18-.09.26.04-.04.09-.13.09-.18.04-.04.18-.13.09-.18Zm1.01,23.9c-.18-.13.04-.35,0-.53-.09.18-.18.31-.22.44-.04-.13-.18-.13-.18,0,.13-.04.13.09.18.18h-.04s-.04.09-.09.13c-.18-.26.18-.09-.18-.31t.04.09c-.35-.13-.31-.31-.31-.57-.09.04-.04.22-.18.18-.13,0,0-.22-.18-.22-.04.09.09.18-.04.18.26.18-.04.35.09.4.18.13.13.31-.09.31.09.04.18,0,.22.09t.04.09c-.13-.04-.22.18-.13.18.26.13.35-.22.09-.26.04-.18.22.04.26.13-.04.04,0,.09.04.09.13.04.09.13.13.22-.04-.48.35-.22.26-.53.18.04.13.31.18.44.13-.22-.26-.66.13-.57.09-.04,0-.09-.04-.13Zm-.92-22.75c-.09.04-.09.18-.13.26.13.04.35.13.4-.09-.18,0-.09-.26-.22-.31-.09,0-.04.09-.04.13Zm-.13,17.56c.04.13.18.13.18.26.09.09.22.09.18-.09-.04,0-.04.04-.09.04l-.09-.22s-.09.04-.18,0Zm.13-19.32s-.04.18.04.04c0-.13.13-.13.18-.26,0-.09-.22-.04-.22.09-.13-.09-.09.04,0,.13Zm.97,26.8l.09-.22s-.09.04-.09.04c-.04-.04.13-.09.04-.18,0-.04-.04-.04-.04,0-.04,0-.09-.04-.13-.09,0,.09.09.13.04.22-.09-.09-.09-.26-.22-.31.04.22,0,.4-.22.26.18-.13.18-.22,0-.31-.04.57-.4.09-.35-.22,0-.18-.04-.13-.13-.09.09.18.09.44.13.7.18.09.13,0,.31,0,.04,0,.09.04.04.04,0,.04.04.26.09.26.04-.09.13-.18.09-.31l.13.09c.09.18.13-.22.22.09Zm-.7-26.8c.09.13-.22.35.04.4.13-.04-.13-.09,0-.13q0-.09.04-.18s-.09-.22-.09-.09Zm.13,29.18c-.18,0,0-.09-.04-.18-.09,0-.13.18-.13.22.09.04.26.04.18-.04Zm.04-13.82c-.09,0-.09-.09-.09-.13-.13-.53-.18.31.09.13Zm-.09-10.21h-.09c.13.22.35.13.48,0-.04-.18-.18.04-.22.09-.09-.04-.04-.18-.13-.22-.09,0-.04.09-.04.13Zm.18,20.73c0-.09.04-.18.04-.26-.18-.04-.13.22-.09.35-.18.04-.13-.22-.18.18.13-.04.26-.13.26.09.22.04.04-.26-.04-.35Zm.09-2.11s-.04-.09-.04-.13c-.13.04,0,.31-.18.26-.13.18.13.31.22.13,0-.13.22-.13.13-.31.04-.09-.04-.09-.04,0s-.09.04-.09.04Zm-.09-22c.09,0,.13-.09.22-.18q-.26.04-.31-.13c-.18.22.22.13.09.31Zm.18,27.46c-.09.13-.48.09-.22.26.04-.09.22-.13.22-.26Zm-.26-9.99c.4.09.66.31.7.7.04-.09.04-.18.13-.31-.18.04-.13-.09-.22-.18-.18-.13-.4-.35-.62-.22Zm.22,5.76c-.09.04-.26.26-.13.31.09-.09.18-.18.13-.31Zm.13,2.2c0-.09-.04-.18-.18-.04,0-.09.09-.22,0-.26-.26.53.04.18.18.31Zm-.04-4.53c.04-.09.09-.13,0-.22-.13.04-.18.18,0,.22Zm.22-3.57c.18-.09.22-.04.26.13.04.04,0,.09-.04.09l.13.09s-.09,0-.13,0c.18.13.22.48.31.09q0-.09-.09-.13c-.22-.18.18-.09.26-.13-.04-.26-.22.04-.35-.13-.09-.22-.22-.26-.35,0Zm.31,8.45c-.09-.13.09-.53-.09-.44-.09-.22.09-.35.04-.48-.09.04-.09.22-.18.18-.09.04-.13.26.04.22-.04.09-.04.18.04.22.09.09,0,.26.13.31Zm-.13-20.33c.18-.18.09-.75-.13-.35.26-.04,0,.22.13.31v.04Zm.26,18.66c-.18.04-.18.31-.35.09.35-.04.18-.35.04-.48.04-.09-.18-.44,0-.31.04-.09.18-.18.13-.04.09.18.18.09.09.35l-.09-.09c-.04.13.09.35.18.18-.04-.13.04-.26.09-.4.13.13-.04.18,0,.35,0,.04.13,0,.09-.04t-.04-.04c.09-.04.22-.04.13.09.31.7-.44.92-.26.35Zm-.22-1.89v.04s.04.09.04.13c.09-.04.09,0,.09.09-.22-.04,0,.18.04.26.09-.18.13-.22-.04-.26.18-.13,0-.48-.18-.35t.04.09Zm.09-6.47c0-.13-.04-.26-.04-.4-.13.04-.09.31.04.4Zm-.04-6.51s.04-.09.09-.13c-.13-.18-.22,0-.09.13Zm.04,9.73c.13.13,0,.18-.04.26.22,0,.44-.31.04-.26Zm.04-2.55s0,.13.09.13c0-.13,0-.22.09-.31-.26-.13-.31.22-.18.18Zm.18-10.47l.09-.09c-.18-.04-.18-.18-.31-.31-.04.13.13.26.22.4Zm-.22-.7c.26.13.09-.18.22-.31q-.09,0-.04-.09c.09-.09-.09-.26.13-.22-.26-.35-.26.26-.26.44,0,.09.13.13-.04.18Zm.22,19.98c-.09.09-.04,0-.09-.04-.09-.09.04-.26-.09-.35-.09.22.04.4.09.62.09-.04.18-.13.09-.22Zm.09-21.12c-.04.18-.13.13-.26.04-.09.26.48.18.26-.04Zm-.18,18.75s-.04.09,0,.09c.13,0,.04.13.18.18.22-.18-.04-.18-.18-.26Zm.13-6.64c.09-.09.09-.35.13-.48-.22.04-.18.31-.13.48Z"/><path class="cls-1" d="m71.91,68.87c-.18,0-.53-.09-.22-.22-.26-.13-.13.18-.31.22-.18-.04-.84.18-.7-.09h-.13c-3.12.26-6.87,0-10.17.09-.62-.04-1.41.04-1.98-.04-.92.09-2.46.35-2.9-.7-.18-5.85,0-11.66-.04-17.43,0-3.83-.04-7.7,0-11.49.09-1.28,1.67-1.1,2.6-1.06.66-.04,1.36-.04,2.07-.09,1.67.13,3.39,0,5.15.09,1.14.09,3.48-.57,3.39,1.23.09,5.94,0,11.71.04,17.6h-.09c.18.53.04,1.19.31,1.67,1.28.79,2.95.18,4.36.4.97-.09,1.98.04,2.95,0,.26,0,.62-.09.84.04q.09-.04.18.04c.44-.13,1.06-.18,1.5-.09.35-.09.75,0,1.06.13.13-.4,1.19-.09,1.54-.13.22,0,.31.31.48.4.04-.18-.18-.26-.26-.35.57-.09,1.19-.04,1.76-.04,1.5,0,2.99-.09,4.49.04,1.01,0,.88,1.1.92,1.8.04.48,0,.92-.04,1.36-.09,0-.18-.04-.22.09.57.48.09,1.76.26,2.46-.04.75.09,1.54-.13,2.25-.04.13-.04.31.09.4-.04.09-.13.18-.04.31.22-.35-.04.48-.09.57-.09.35-.53.44-.79.48-.31-.09-1.72.26-1.54-.18,0-.09,0-.13-.09-.13,0,.09.09.4-.04.35s-.35.04-.4-.13c-2.2.26-5.15.04-7.7.13-1.36.04-2.73-.09-4.09.04-.22,0-.44-.09-.66-.04-.13,0-.09-.13-.18-.18-.04.26-.66.13-.92.22-.04-.13-.09-.04-.22-.04Zm-15.45-22.66c-.04.09-.04.18,0,.26.09-.04.18-.31,0-.26Zm.18-6.47c-.09-.04-.13.13-.18.22.22.35.31.04.18-.22Zm.84,9.29c-.13.18-.22.04-.13-.09,0-.04,0-.09-.04-.09-.35.22-.31.13.09.35.04-.04.22-.18.09-.18Zm-.31-10.34c-.09.04-.04.22-.04.35.18-.09.09-.26.04-.35Zm.18-.4c-.31,0,.09.44.13.18,0-.13,0-.18-.13-.18Zm.35,19.06c-.04-.09-.09-.18-.09-.26,0,.09-.35.13-.18.13.09,0,.09.04.09.09s-.09.22.04.22c.04-.09,0-.22.13-.18Zm.04-13.2s-.04-.04-.09,0c-.22.22-.44-.18-.04.48.4-.26.48-.13.13-.48Zm-.04,3.56c-.04.31-.18.13-.22.4.04,0,.04.04.04.04.09-.31.44-.18.18-.44Zm-.09,1.58c.04.13.26-.04.22-.13s-.04.04-.09.09c-.04.09-.09-.04-.09-.09,0-.13-.22.04-.13.13.04-.04.04-.09.09,0Zm-.09,14.26c.04.09.13.44.22.35-.09-.09-.09-.4-.22-.35Zm.09-15.05c0,.13.13.18.18.26,0-.13,0-.31-.18-.26Zm.53,19.5c-.09.4-.13.09-.31.09,0,.22.44.22.31-.09Zm-.13-17.43c-.09-.09-.18.09,0,.09-.31.26.22.13,0-.09Zm.13-.84c-.18-.18-.18.04-.22.22.22.09,0-.26.22-.22Zm.57,2.82c.09-.09.09-.13.09-.22-.04,0-.13.09-.18,0-.31.13.09.4.26.48.18-.04-.31-.18-.18-.26Zm-.13-3.39s.04.09-.04.09c-.09.09.09.13.18.18-.04-.09.04-.26-.13-.26Zm.26,18.09c.09-.13-.22-.13-.22,0,.09.09.13.09.22,0Zm.18-3.83c-.09-.13-.13-.04-.22,0,.04.13.04.18.22,0Zm.13,3.79c.18-.04-.09-.31-.18-.26.09.13-.04.26.04.4.13,0-.09-.31.13-.13Zm.09-3.87s-.04.09-.04.13c-.09.13-.13,0-.13-.09-.09.04,0,.26-.04.35.26-.13.22-.13.22-.4Zm.22.57c-.13.04-.04-.18-.26-.04.22.09.04.13.13.22l-.04.09c-.13.04.04.09.09.18.04-.18,0-.26.09-.44Zm.13,3.17c-.13,0-.31.13-.13.18.09,0,.09-.13.13-.18Zm-.09-23.98c-.18.13.35.4.26.22-.13-.04-.22-.09-.26-.22Zm.66,22.44c-.13-.18-.26.09-.13.18.09,0,.09-.09.13-.18Zm.18-9.46c.09-.13.31.09-.09-.22,0,.09-.04.13-.13.04-.18.04.18.09.04.22.04.04.09,0,.18-.04Zm.4-4.14c-.09-.09-.35-.09-.22.09-.04.13.22-.04.22-.09Zm.26-6.56c-.09.13-.09.26.09.13.13.04-.04-.13-.09-.13Zm.13,19.54c-.13.09-.09.31.09.22-.04-.09,0-.18-.09-.22Zm.26-26.05c-.18.09-.09.22,0,.31.13-.09.09-.18,0-.31Zm.26,2.95c0-.18.13-.31.04-.48,0-.48.31-.18-.13-.66-.18.26.18.66-.18.88-.09.09.09.18-.04.22,0,.09.09.13,0,.26.09-.13.18-.13.31-.22Zm-.04-1.41c-.04-.09-.22.09-.13.13.18,0,.4-.44.13-.13Zm.22,6.82s.09-.4.18-.18c.09-.04-.04-.13-.09-.13-.13,0-.13.13-.22.22-.04-.09-.09-.13-.18-.04.22.04.13.22-.04.13,0,.18.26-.04.31.18.18-.18.48-.4.04-.18Zm-.04,17.43c0,.13-.13.04-.22.04l.13.13c.22-.04.22-.26.09-.18Zm0-22.18c-.18-.22-.26.31-.13.44.22.04.09-.31.13-.44Zm-.04,22.44l-.04.18c.26.13.18-.04.04-.18Zm.4-14.61c-.18.18-.18.04-.35-.04v.13c.18,0,.26.13.4.26-.04-.13-.13-.18-.04-.35Zm.18-.09s-.13,0-.13-.09c-.09-.26-.22.13-.31-.04,0,.13.04.18.18.13.09-.09.18.04.26,0Zm.26-9.55c-.18,0-.04-.26-.22-.35-.04.09-.18.04-.22.13.09.13-.04.09-.04.18.18.09.04.48.26.13-.13-.13-.09-.18.04-.26.04.09.04.22.04.31.09-.04.13-.04.13-.13Zm-.22,3.52c-.13-.04,0-.18.04-.26-.13,0-.26-.13-.22.13.04,0,.04.04,0,.04-.04.13.04.22.04.31-.18-.04-.09.09-.09.18.18-.04.35-.57.22-.4Zm-.04,4.4c0,.22-.18.4-.04.57.09-.13.22-.44.04-.57Zm.57-6.73s-.09-.13-.13-.18c0-.09.13-.31-.04-.26s.13.35-.09.35c-.04.13-.04.09-.13.04-.04.13.18.13.26.18v-.04c.09,0,.13,0,.13-.09Zm.18,14.83s-.22-.18-.26-.13h-.09s.04-.04.04-.09c-.09.04-.09.09-.18.13.13.04.26.04.22.18.31.04,0-.13.26-.09Zm-.35-16.41c-.09-.04-.04.04-.09.09.04.04.13-.09.13.04.22-.09.22-.26-.04-.13Zm.04,24.73c0,.13.13.26.18.13,0-.09-.13-.22-.18-.13Zm.35-14.87c.09-.18-.22-.09-.26-.18,0,.22.04.44,0,.7.35-.04.13-.35.26-.53Zm-.04-8.58c-.13.13.26.31.22.04,0-.22-.13-.22-.22-.04Zm.31,2.38s-.04-.18-.09-.22c-.09.09,0,.22-.13.31.04.04.13-.09.22-.09Zm.13,20.86c0-.22-.35.04-.13.13.04,0,.04-.13.13-.13Zm.13-23.19c-.04-.13-.18.04-.18.13.09.18.18.04.18-.13Zm.04,2.9c-.09-.09-.22.18-.18.26.13-.04.13-.18.18-.26Zm.22-.62c-.31-.09-.22.18-.22.35.13-.09.04-.26.22-.35Zm-.18,1.1c.13,0,.22,0,.13.18.26-.09-.04-.4-.13-.18Zm.75,15.45c-.09-.22-.13.09-.13.18.04.13.09-.13.13-.18Zm.09-13.42c0-.4-.22-.09-.13.13.04-.09.04-.22.13-.13Zm.48-6.34c0-.13-.26-.35-.35-.22-.26,0-.18.44.04.44.09-.09.31-.09.31-.22Zm-.4,6.25c-.09.04.04.13.04.18,0,.09-.13.31,0,.22.31-.35.09-.13-.04-.4Zm.31-4.62c-.22.09-.04.13-.09.22-.09.13.04.09.13.18-.09-.13-.09-.22-.04-.4Zm.4,6.47c-.13-.44-.22-.04-.31-.22-.04.04,0,.31.09.13.09.09.04.35.09.48.18-.13-.09-.26.13-.4Zm-.26,10.43c.04.13.4.22.53.4-.04-.22-.31-.31-.53-.4Zm.09-12.89c-.13.13,0,.18.04.31.13-.09-.04-.22-.04-.31Zm.31-3.34c-.09-.09-.18,0-.26.04-.09-.09-.09,0-.09.04,0,.18.18,0,.26.09s.18-.13.09-.18Zm.09-.53c-.18.04-.18-.18-.4-.18-.04.18.13.22.26.26.04.09.04.22.22.22-.18-.09.04-.22-.09-.31Zm-.18,8.67c-.13-.04-.04-.26-.13-.31-.04.04.04.13,0,.22-.04.04-.09.13.04.13.04,0,.04-.04.09-.04Zm0-10.12c-.04-.09.04-.09.09-.13-.09-.09-.35-.22-.18,0,.04.09,0,.35.18.31-.09-.04,0-.13-.09-.18Zm.4,7.92c-.09.35-.26.13-.4.26.18.04.57,0,.4-.26Zm0-6.65s-.09.04-.09.09c0-.22-.13-.04-.13,0,.13.13.22.13.22-.09Zm.04,23.68c-.04.22.04.4.09.57.09-.18,0-.4-.09-.57Zm.22-23.15l.04-.04c0-.13.09-.09.13-.18-.18-.26-.31.04-.31.22.04,0,.09-.09.13,0Zm.4,9.07c-.13,0,0-.22-.13-.13v-.13c-.09.09-.13.13-.22.18.31.13-.13.13,0,.26.18-.35.18.44.35-.18Zm.13-9.02c-.13,0-.26,0-.31-.13-.09.09-.04.18-.04.31h-.04c.04.09.22.22.31.18.04-.09.26-.35.09-.35Zm-.18,5.46c-.18.13,0,.35.04.53.04-.18.09-.4-.04-.53Zm0,17.43c.09.04.18.18.31.13-.09-.13-.13-.22-.31-.13Zm.31,2.46c.18.09.26.26.4.35-.04-.09-.22-.4-.4-.35Zm.4-29.66c-.13.09-.09.22,0,.31.13-.09.18-.26,0-.31Zm.35,10.3c-.13-.18,0-.35-.18-.4-.09.22.09.26,0,.53.09.09.04-.18.18-.13Zm.13,0c-.35.26,0,.18.13.35.13-.26-.31-.04-.13-.35Zm.22,12.94c-.04.53.53-.18.13.04,0-.09.04-.18.04-.22-.18.09-.18.13-.26-.04l-.04.04c.13.22-.13.22-.22.31,0,.04.13.09.13.04.04-.13.18-.09.22-.18Zm-.18-13.77c-.13.04-.09.48.13.4.04-.18-.18-.22-.13-.4Zm.35,15.8c.26.22.09,0-.04-.13-.09.09-.35.4-.22.48,0-.26.35-.13.26-.35Zm-.22-17.82c-.04.18.13.26.26.35.13-.18-.04-.53-.26-.35Zm.62,7.26c-.09.13-.13.26-.26.26.18.22.31-.13.26-.26Zm.35,6.51c-.13.04-.04.31.09.22.04-.04-.09-.13-.09-.22Zm.26,2.77c-.31,0-.18.26-.04.4.22.22.88-.44.04-.4Zm.09-.92c.13-.04.04-.18.18-.22-.04-.04-.18.09-.18-.04-.18.09-.22.18-.13.31,0-.13.09-.04.13-.04Zm5.28-1.58c-.13.09,0,.13-.09.22,0,.26.35,0,.09-.22Zm1.14.22l.09.09s-.09-.31-.22-.26c.13.09.04.22.09.31,0-.04.04-.09.04-.13Zm.48.04c-.13.04,0,.22.09.22.09-.04,0-.22-.09-.22Zm.26-.13c-.04.18.18.22.22.04-.04-.26-.18-.31-.22-.04Zm.18-1.01c0,.13-.04.26.04.35.04-.09.09-.26-.04-.35Zm.62,7.7c-.09,0-.13.13-.04.18.04-.04.13-.09.04-.18Zm.4-6.42s-.09-.09-.18-.13c0,.4-.09,0-.22.13.13.31.18.09.4,0Zm.18,2.99c.09.09.04.26.18.31.04-.18-.04-.26-.18-.31Zm1.14,1.72c.04-.22-.18-.44-.13-.66,0-.18-.18-.31-.22-.13.18.35.18.7.22,1.06.09-.04-.04-.22.13-.26Zm.13-5.54c.04.09.09.26.18.26,0-.09-.18-.53-.18-.26Zm1.23-.13c-.31-.48-.13.31.04.31.13-.09.18.04.26.09.04-.4-.22-.04-.31-.4Zm.7,6.42s.04.04.09.04c-.04.04-.04.09-.09.04-.22.09.04.18.18.22-.13-.13.09-.35-.18-.31Zm1.72-5.24s-.09-.09-.13-.09c0-.13-.26-.04-.31-.22,0-.13-.13.09-.22-.04-.04-.04-.13-.18-.18-.04-.4.31-.09.09.04.4.13-.09.22-.04.4,0,.09-.09.09.09.22.09,0-.09.09-.04.18-.09Zm-.66,6.65s0-.04,0-.09c.09,0,.09.26.22.13.04-.04.09-.13.13-.09.13.09.13-.09-.04-.13.04.09-.13.18-.18.13,0-.13-.13-.09-.18-.18-.13-.18-.48.13-.13.09-.26.13-.13.66,0,.48.09-.13.22-.22.18-.35Zm.22-7.66c-.09,0-.18-.18-.22-.04.04.04.22.31.26.09,0,0,0-.04-.04-.04Zm.35,8.62c-.22.09-.18.57,0,.22.13.09,0-.13,0-.22Zm-.04-7.04c-.18-.04.09.13.13.18.09-.13.04-.31-.13-.18Zm-.04,6.47c.09.09.26.18.35.04-.13-.31-.04.09-.35-.04Zm.75-7.08s-.04-.04-.09,0c-.13.04-.4-.09-.48.09.04.18.26.18.35.09.09-.04.18.04.18.09.04.13.31-.13.4.09.26-.31-.22-.26-.35-.35Zm-.18,4.36s-.04,0-.09,0c.13.13,0,.26.04.4.09-.04.22-.44.04-.4Zm1.28.84c-.04-.13.13-.13,0-.26-.04.04-.04.09-.04.09-.13.09.09.26-.13.31.22.09.4.13.18-.13Zm.4-4.36c-.09.09.13.22.09.31s-.04.09.04.13c.09-.18,0-.31-.13-.44Zm.31.04c.09.22.22.04.13-.09-.09-.04-.04-.18-.18-.22-.04-.18-.18.04-.04.09.13.09-.04.18-.09.26.09.04.13-.18.18-.04Zm.66,6.42c.4-.09-.04-.09-.18-.04.18-.26-.18-.04,0-.26.04-.22-.26-.04-.18-.35-.04,0-.04.04-.09.04,0-.13-.09-.44-.13-.13,0,.04-.04.09-.09.09.18.09,0,.18.04.26.09,0,.18-.18.09,0,.4,0,.04.18.26.44,0,.13-.18.31-.09.4.04.04,0,.13.13.13.75.09-.35-.66.22-.57Zm.04-6.25c-.13,0-.22.09-.26.26.18.04.48-.13.26-.26Zm.04-.35c0-.18-.26-.04-.22.09.09,0,.26.09.22-.09Zm.22-.04c-.04-.22-.26,0-.09.09.04,0,.09,0,.09-.09Zm.75-.26s.04-.04.04-.04c.09,0,.18-.09.13-.18-.13.22-.26-.18-.44-.18-.13.09-.09-.35,0-.31l.04-.04c-.22-.18-.22-.04-.18.18,0,.22-.31.31-.26.53,0,.13-.04.04-.09.04.04.18.35.4.53.31.13-.04.22-.22.22-.31Zm-.48.7s-.13,0-.04.09c.09,0,0,.13.04.18.09.18.18-.22,0-.26Zm1.01-.22c-.09.04-.04.18-.13.22.04,0,.09.04.09.04-.09.13.18.35.26.22.22-.13-.09-.4-.22-.48Zm.75.84l.13-.09c-.35-.26-.66-.18-.13.09Z"/><path class="cls-1" d="m141.83,39.47c0,5.37-.04,10.74,0,16.02-.13,3.61.09,7.17-.04,10.83.04.92.26,2.46-1.06,2.46-1.23-.04-2.46.22-3.7,0-1.72.09-3.48.04-5.19.04-1.23,0-3.08.31-2.95-1.5,0-3.21.04-6.38-.04-9.64-.09-.57.44-5.9-.66-4.93-2.29,3.79-3.92,7.83-5.99,11.79-.31.4-.31,1.1-.7,1.32-.04.04,0,.13,0,.22-.31.4-.44,1.54-.97,1.45-.09.13.26.18.09.31-.44.53-.97.88-1.63,1.06-1.72-.31-3.52.18-5.15-.26-.88-.35-1.01-1.28-1.41-1.98-.09-.09-.18-.18-.09-.31-.35-.09-.13-.57-.35-.75-.48-.53-.7-1.32-1.06-1.98-.44-.97-1.23-2.02-1.41-3.04.13-.22-.22-.09-.26-.22-.48-1.01-.97-2.07-1.45-3.04-2.02-3.56-3.17-8.23-3.12-.62.13,3.43.04,6.95.04,10.39.18,1.63-.66,1.76-2.07,1.72-1.54.04-3.12-.09-4.67.09-1.32-.04-2.6-.09-3.92-.04-.75-.18-1.94.31-2.29-.66-.04-.13-.18-.31,0-.4.04-.04.04-.09,0-.13-.35-.53,0-1.32-.26-1.85.04-.09.13-.09.22-.13-.35-.48-.04-1.06-.09-1.63-.13-.62.13-1.28-.13-1.8.35-.84-.04-1.94.13-2.82,0-.7-.04-1.32-.13-1.98.18-.18.18-.35,0-.53.09-.18.09-.4.09-.62,0-1.8.09-3.65-.09-5.41.26-1.32.04-2.68.09-4.05-.09-.48.26-1.06-.09-1.45.26-.31-.04-.88.18-1.1.04,0,.13,0,.13-.09-.53-.48,0-2.86-.18-3.74-.04-1.54-.04-2.73,1.89-2.29,1.1-.31,2.2,0,3.3-.09.26-.04.57-.09.79.09.18-.09.31-.18.53-.04,2.25-.13,4.49,0,6.73-.09,1.23.09,2.55-.31,3.65.31-.53.48-.62-.18-.92-.04-.18.18.04.26.22.22,0,.09-.04.18.04.22.04-.31.48-.04.66-.22.13-.09.22-.04.31.04.48.57,1.06,1.36,1.23,2.16.79,1.8,1.67,3.56,2.42,5.33,1.01,2.11,1.98,4.27,2.95,6.38.48,1.1,1.32,3.17,2.16.97,2.2-4.66,4.36-9.46,6.47-14.08.75-1.63,2.77-1.23,4.27-1.28,1.58.04,3.17-.04,4.75.04,1.76-.04,3.56-.04,5.37-.04,1.23.13,3.39-.48,3.34,1.41Zm-49.46,9.95c-.04-.13-.31-.22-.44-.22,0,.13.31.35.44.22Zm-.31,7.26c-.13.09-.13.22.04.22.13-.04,0-.13-.04-.22Zm.22-12.32s-.09-.09-.18-.13c-.13.18.09.31.18.13Zm.48,11.75c-.04-.09-.13-.04-.26-.04.09.13.22.18.26.04Zm.09,11.93c-.04.09-.04.13,0,.22.13-.09.13-.22,0-.22Zm.18-13.95c-.13.09.04.13.18.13.26-.09-.09-.13-.18-.13Zm.66,7.48c0,.13.04.13.13.26.13-.18.13-.35-.13-.26Zm.22,6.03l.04.04c.18-.09.31.13.48.09.53-.48-.26-.44-.53-.13Zm.22-17.34c0-.26.18-.18.13-.44-.26-.04-.4.79-.13.44Zm.09,5.54c.13,0,.22,0,.22-.13-.04-.13-.22,0-.22.13Zm.22,3.92c-.13.04-.13.18-.04.31.04-.13.13-.22.04-.31Zm.57-10.17c-.09-.13-.18-.26-.26-.09.04.09.13.09.26.09Zm0,18c0-.22-.18-.26-.26-.13,0,.09.22.26.26.13Zm-.09-13.25l.04-.04c-.09-.22-.26-.04-.04.04Zm.31-14.65c-.04-.09-.22-.04-.31-.09.04.22.13.26.31.09Zm.22,15.93c-.09.18-.09.31,0,.4-.04-.13.09-.22,0-.4Zm1.36,12.06c-1.58-.57-1.5.62-.84,0,.13.18.26.18.48.13.09-.04.57.04.35-.13Zm-.97-7.83l-.13-.13c-.13.09.04.22.13.13Zm.4-4.53c0,.09.09.09.13,0-.04-.13-.13-.13-.13,0Zm.26-12.06c.04.09.31.04.31-.04-.09-.04-.22.04-.31.04Zm.53-3.21l-.26.18c.13.31.22,0,.26-.18Zm-.26,1.01q.18.04.22-.13c-.09.04-.18.04-.22.13Zm.44,14.35c-.04-.09-.26-.09-.35-.13-.22.22.26.13.35.13Zm1.85,12.15c-.92-.09-.75-.13-.97-.97-.48-.4-.75.26-.48.66.18-.04.44-.13.53.09.09.26,1.28.7.92.22Zm-1.14-18.39c0,.18.26.18.22,0-.04-.09-.09-.09-.22,0Zm.13-9.59c.09.04.18.09.26.04-.04-.09-.18-.18-.26-.04Zm.18-.7q.13,0,.22-.09c-.09-.09-.22-.04-.22.09Zm.26,1.28c-.18-.09-.18.13-.13.22.09.09.13-.13.13-.22Zm.18,14.52c-.4.13-.4.35,0,.18.13.13.18-.26,0-.18Zm.26,1.76c0,.18.18.04.13-.09-.04.04-.13-.04-.13.09Zm.4-17.69c-.09-.13-.18-.04-.22.09.04.09.13-.04.22-.09Zm.04,17.16c.18-.13-.13-.09-.22-.04q.09.18.22.04Zm-.18-6.65c.09,0,.18-.09.18-.18-.09-.18.18-.18.22-.35-.22-.09-.4.35-.4.53Zm.48,18.44c-.09-.13-.13-.18-.31-.04-.22.22.22.26.31.04Zm.13.7c-.13.09-.31.26-.04.35.13-.04.04-.26.04-.35Zm.31-29.88c-.22,0-.35-.13-.35.18.09-.13.26.04.35-.18Zm.09,15.75c-.13.04-.22-.04-.31.04.04.13.22.04.31-.04Zm.13-5.98c-.09.09-.13.18-.26.09-.4.09.31.18.44.22.35-.04.04-.57-.18-.31Zm.79,7.96c-.09-.04-.13,0-.26.04.09.13.26.13.26-.04Zm.26-17.65c0-.13-.13-.04-.22,0,.04.13.18.13.22,0Zm-.18.66c-.09.09,0,.13.04.22.09-.04.09-.22-.04-.22Zm.57,14.08c-.09.09-.13.13,0,.22.09-.09.13-.13,0-.22Zm.92,2.51c.04-.13-.09-.26.04-.35-.26-.09-.09-.09-.31,0,.09.26.13.31,0,.53.13,0,.18-.09.22.13.22.09,0-.22.04-.31Zm.4,1.76c-.13-.18-.22-.09-.31-.04-.22.22.18.13.31.04Zm-.31-18.17c0,.09.13.04.13,0,.04-.22.26-.31.22-.48-.35-.04-.31.22-.35.48Zm.26,5.54c-.04-.18-.35-.04-.18.09.09-.04.13-.04.18-.09Zm0-6.42s-.09-.13-.18-.04c-.04.18.13.22.18.04Zm.22,16.9c-.13-.09-.22-.18-.26-.04,0,.18.13.13.26.04Zm-.09.57c0,.09-.13.18-.09.31.04-.13.18-.18.09-.31Zm.18,1.36c-.09-.13-.26-.09-.26,0,.04.13.18.04.26,0Zm.26-18.92c-.09-.09-.18-.13-.22,0,0,.13.13.09.22,0Zm.09,28.47c-.13.04-.13.18,0,.18.13-.04.04-.09,0-.18Zm.53-11.84c0-.09-.22-.09-.26,0,0,.13.18.09.26,0Zm-.26.62c0,.13.13.22.18.09.04-.13-.13-.26-.18-.09Zm1.36-17.12c-.31-.26-.4-.4-.79-.13-.48.18-.4.31.09.31.18-.09.53,0,.7-.18Zm-.97,27.5c-.13.04-.04.13,0,.22.09-.09.13-.22,0-.22Zm.22-14.08c-.13.04-.18.18-.26.26.18.04.31-.09.26-.26Zm.31-12.1s-.09-.09-.04-.13c.04-.22-.48-.13-.35,0,.31-.04.13,0,.4.13Zm.26.88c-.09-.18-.18.04-.31.18.22.35.4.09.31-.18Zm1.67-1.94s.13,0,.13-.09c-.09-.22-.44.09-.62-.09-.13-.04-.31-.13-.48-.18,0,.13-.09,0-.13,0-.18.04-.4.13-.35.31.26-.13.26.04.4.18-.04-.18.18-.44.35-.22,0,.04.04.04.13.09.18.04.4-.04.57,0Zm-1.36,2.51v-.66c-.13.04,0,.57,0,.66Zm.44-.18c-.13.18-.09.26.09.35.09-.13,0-.22-.09-.35Zm.84,8.49c-.13-.18-.22-.18-.35.09.13-.09.26,0,.35-.09Zm-.04-2.24c.22-.04.26-.18.26-.35-.22-.09-.31.09-.26.35Zm.18,7.04c-.18-.04-.13.22,0,.22s.18-.26,0-.22Zm.44-15.98c-.18,0-.09.13,0,.26.09-.09.18-.22,0-.26Zm.26,16.15c-.09,0-.09.18-.04.18.13,0,.09-.13.04-.18Zm.57-15.84c-.13,0-.26.13-.31.26.22.04.22-.13.31-.26Zm.48,18.83c0-.18-.22-.13-.22.04.09.09.22.04.22-.04Zm.35-2.95c-.04-.26-.31-.04-.18.09.09.09.13-.04.18-.09Zm.26,2.77c-.04.13-.09.26.04.26.18-.04.04-.13-.04-.26Zm.04-1.98c-.04.13,0,.31.13.22.04-.13-.04-.18-.13-.22Zm.66-1.36c-.09-.13-.13-.13-.22-.04h-.04c.09.09.18.09.26.04Zm1.01-5.63c-.26-.26-.75-.31-1.06,0,.18.18.31.09.48-.04.22-.13.22.26.57.04Zm-.92,7.83c-.09.09-.09.26.04.26.22,0,.18-.22-.04-.26Zm.75-3.04c-.13.09-.22.22-.22.4.09-.13.18-.22.22-.4Zm0-1.76c-.18,0-.22.31,0,.35.22,0,.18-.31,0-.35Zm.04,1.32c-.13.04-.13.13-.09.26q.13-.13.09-.26Zm.66,9.2c.04.18.22.31.04.48.18-.09.18-.31-.04-.48Zm.26-6.91s-.13.04-.13.13c.09.09.22.04.13-.13Zm.97-6.56c-.04-.18-.09-.31-.22-.4-.18.22-.04.31.22.4Zm.26,18.53c.04.09.13.18.18.31.26-.13,0-.26-.18-.31Zm.09-15.53c-.04.22.4.31.4.09.04-.22-.35-.35-.4-.09Zm1.89,16.9c-.18-.13-.31-.31-.48-.48.09.26.31.48.48.48Zm-.26-.88c.4,0,.22-.13.04-.18-.09.04-.18.13-.04.18Zm.57-.18c-.22,0-.18.18.04.22.18-.04.18-.26-.04-.22Zm.62-.09c-.09.04-.13.04-.18,0-.18.13.09.18.22.18,0-.04.04-.26-.04-.18Zm.7-.22c-.09-.09-.13-.13-.18,0,.04.09.09.09.18,0Zm.48-11.09c-.18-.13-.13.13-.26.09.18.26.4.09.26-.09Zm.66,10.56c-.13.09-.22.13-.31.22.26-.04.26-.09.31-.22Zm.13-10.3c0-.18-.22-.13-.22.04-.04.18.26.09.22-.04Zm.09,10.12s.04.09.09.18c.09-.13-.04-.31.13-.26.7-.04,0-.97-.22.09Zm.57-12.5c.09-.09.4-.26.18-.35l-.4.57c.13.04.18-.09.22-.22Zm.18,2.29c.22.13.35-.26.04-.22-.22.04-.48.44-.04.22Zm.09,2.95c.4.04,0-.09-.18-.09-.04.09.13.09.18.09Zm.26-4.05c-.13.09-.13-.18-.31,0,.22,0,.09.09.22.13s.18-.09.09-.13Zm.13-.53c-.13.04-.26.04-.4.04.04.22.35.18.4-.04Zm-.35-1.32c.09.04.13,0,.26,0-.09-.09-.18-.13-.26,0Zm.26,12.15c0-.18-.26-.18-.26,0s.26.13.26,0Zm.22-12.23c-.13,0-.18.09-.09.18.18.04.22-.18.09-.18Zm.48,5.9c.09.09.18.04.26.04.13-.31-.18-.22-.26-.04Zm.26-2.95c-.09-.04-.13-.04-.18-.09-.13.13.04.22.18.09Zm.09,8.93c.13-.18.22-.13.31.09.26-.66-.53-.75-.31-.09Zm.09-9.42c.04-.09.13-.09.18-.18q-.18,0-.18.18Zm.7.44c-.26-.62-.88-.31-.48-.04.18.09.26-.04.48.04Zm-.09-6.95c.09-.13.09-.18,0-.31-.09.09-.09.18,0,.31Zm.26-2.95c.13,0,.44.18.44-.04q.04-.09.18-.09c.44.18.18-.48.09-.66-.22-.04-.18.13-.31.18-.26.04-.31.44-.4.62Zm.48,12.41c0-.22-.18-.44-.4-.4.13.13.35.18.4.4Zm.09-11.71c0-.09-.04-.22,0-.26.18-.09,0-.31-.13-.22-.04.31.04.66.35.75.31-.09.04-.44-.22-.26Zm.44,9.59q-.09.04-.04.31c.09-.18.09-.22.04-.31Zm.22-1.19c-.13-.04-.26.09-.13.18.09,0,.13-.09.13-.18Zm.09-7.83c0-.09-.09-.22-.18-.13.04.09.04.13.18.13Zm.92-.18c-.04-.09-.04-.35-.18-.26-.04.13,0,.35.18.26Zm1.98,8.49c-.09-.31-.4,0-.48-.22-.09-.09-.22-.04-.31,0-.22.13-.35-.09-.53-.09-.31.26,1.14.26,1.32.31Zm-1.1.22c-.22.13-.26.18-.13.4.22-.04.13-.22.13-.4Zm2.42-6.07c.09.04.18.18.26.18.09-.18-.09-.31-.26-.18Zm2.99-9.99c-.09-.09-.18-.13-.22,0q.09.13.22,0Zm.22,18.4c-.09-.04-.22-.13-.35-.04.13.18.22.22.35.04Zm.18,1.94q-.18-.04-.13.18c.04-.09.09-.13.13-.18Zm.35-4.93c-.13-.04-.26.18-.22.26.13-.04.13-.18.22-.26Zm4.05,4.8c-.09.09-.31.35-.18.48.04,0,0-.04,0-.09.13-.09.18-.22.18-.4Zm-.04-16.11c-.18-.09-.18.13,0,.18,0-.09.13-.13,0-.18Zm.79,15.23c-.09-.18-.26-.13-.18-.35-.09.04-.18.18-.09.22.13,0,.22.4.26.13Zm.4-17.21c-.71.09.04.53-.04.18-.09-.09,0-.13.04-.18Zm1.98,7.44c-.22-.18-1.14.13-.62.26q.18-.09.26.09c-.31.18.35.31.26,0-.09-.22.18-.09.09-.35Zm-.4-2.02c.09-.13.09-.18-.04-.31,0,.13-.09.22.04.31Zm.97.84c-.22-.04-.44.04-.62.13.09.04.62.09.62-.13Zm0-.31c-.18,0-.31.09-.48.13.22.09.4.04.48-.13Zm-.22-.57c.13.13.22.09.31-.18,0,.04.04.09.04.13.18-.35-.22-.18-.35.04Zm.04-.48l.13-.13c-.13-.09-.22,0-.13.13Zm.57.62c-.13,0-.22.09-.31.18-.4-.09-.09.4,0,0,.13.18.22-.09.31-.18Zm.4-2.6c.53-.26-.18-.18-.44-.22.09.18.26.31.44.22Zm-.18.13c-.09.09-.22.22-.09.31.09-.04.26-.22.09-.31Zm.57,18.39c-.13-.09-.31-.22-.35-.09.04.13.22.13.35.09Zm-.26-18.48c-.09.13.09.13.09.22q.04-.18-.09-.22Zm1.06.13c0-.13-.04-.26-.09-.44-.09.18-.04.31.09.44Zm.62-.26c.22-.04.35-.13.53-.18-.09-.13-.66-.09-.53.18Zm.57,1.36c-.13-.04-.44.04-.4.18.18.04.26-.09.4-.18Zm.18,7.17c-.09-.09-.22-.04-.22.09.04.18.18,0,.22-.09Zm.04.48c-.09-.04-.13.09-.22.09,0,.13.26.04.22-.09Z"/><path class="cls-1" d="m181.51,65.61c-.53.48-1.14.88-1.76,1.19-.18-.09,0-.4-.18-.48l-.04-.18c-.09,0-.09-.04-.09-.09-.09-.26-.04-.09-.09,0-.09-.22-.18.04-.04.13.09.04,0,.09-.04.09.09.09-.04.26.13.31.09.04.09.13.18.09.13.57-4.09,1.98-4.58,1.85-.04-.04-.09-.26-.13-.13.04.53-1.28.48-1.72.62-.7.18-1.5.18-2.24.31-.18.09-.13-.18-.22-.13-.04.31-.75.22-1.01.22.18-.18.13-.31-.09-.44-.18,0-.22.04-.22.22-.18.57-1.19.31-1.67.4-1.98.09-4.09.18-6.03-.09-5.19-.26-11.13-1.54-14.79-5.59.09-.04.35-.31.22-.4-.18.35-.31.4-.53.04-.04-.18.26-.31.09-.48-.18.04.04.13-.09.31,0-.13-.13-.09-.09.04-.31-.44-1.36-1.89-1.1-2.33-.44-.09-.44-1.41-.57-1.89.04-1.19,1.45-1.01,2.24-1.01.4.04.84-.09,1.23.09.31-.04.66-.13.97-.09-.18.13,0,.13.09.18.13-.09.04-.04-.04-.09-.04-.18,1.76-.13,1.8,0q.09-.13.22-.13c.75.09,1.5,0,2.2,0,.44.04.88.09,1.28.04.22-.04,0,.31.04.44.09-.04.09-.35.18-.44.44.04.88-.04,1.32,0l-.09.09c.18.13.22-.09.35-.04.18.09.13.22-.04.13-.18.09.13.44.18.22.04-.13.26.09.18-.13.18-.09,0-.13.13-.26.31,0,.75-.04.92.22.18-.09.44.09.48.26.35-.04.84,1.41,1.5,1.5,1.19.44,2.42.48,3.7.57.31.04.66-.09.92.18,0-.04,0-.09-.04-.09.18,0,.62-.13.66.04,1.45-.35,3.26.09,4.71-.57.88-.31.92-1.67.09-2.07-.7-.35-1.63-.31-2.25-.66-.04.18-.35-.04-.44,0-.18.04-.18-.09-.26-.13-.13.35-2.07-.13-2.55-.09-.66-.04-1.28-.18-1.94-.22-.4-.04-.88.09-1.23-.18.13.18-.31.09-.4-.09.04.26-2.38.04-1.8-.18-.04-.04-.13-.09-.22-.09,0,.04.04.09.04.13-.09.04-.09.13-.22.09-.13.13-.31-.13-.48-.13-.22.31-1.06-.22-1.45-.04-.13.04-.09-.04-.13-.13-.04.18-.13.13-.26.13-.7-.13-1.67-.18-2.24-.35-.22.18-4.93-1.28-4.18-1.45-.09-.13-.18,0-.31-.04-.13-.09-.4-.09-.44-.31-3.65-1.85-5.32-6.95-3.52-10.65.13.22.22-.04.04-.13.09-.26.22-.09.35-.09-.35-.57.97-1.72,1.36-2.11,2.73-2.33,6.51-3.12,9.99-3.52.09.35-.13.53-.26.84-.44.18.04.18.09.09.53-.57.04-1.01,1.14-1.06,1.89-.26,3.83-.31,5.72-.35,2.25.04,4.45.18,6.69.53.92.18,3.17.35,3.74.92-.04-.48,2.24.66,2.55.84,2.64.97,5.1,3.3,6.12,6.03.22.84.97,2.55-.22,2.95-1.89.22-3.65.04-5.46.09-.35,0-.7.04-1.06-.04.09-.09.04-.26-.09-.18-.18.04,0,.13.04.18-.18.13-.48.13-.48-.13-.04.18-.09.26-.26.18-1.06,0-2.11,0-3.17.04-1.76.04-2.2-.22-3.26-1.58-.66-.48-1.41-.57-2.2-.79-.13.04-.31.09-.48-.04-.04,0-.09-.04-.09,0-.13.04-.26,0-.35,0-1.94.04-3.78-.13-5.68.18-1.94.35-1.76,2.24.09,2.46,1.63.26,3.39.44,5.1.53.4,0,.92.09,1.14.18.26-.04.7-.09.92.13,0-.09.35-.13.31,0,5.46.48,13.03-.04,15.93,5.63,1.5,3.39.62,7.79-2.46,10.03Zm-35.21-18.09c.04-.09.13-.22-.09-.26.13.09-.04.18.04.31,0,.04.09.04.04-.04Zm.31-3.65s.09-.04.13-.09c-.13-.26-.35.22-.4-.04-.22.18.22.4.26.13Zm.18,6.91c-.09-.04-.26-.26-.31-.13-.04,0-.09-.04-.13-.09-.13.09.22.13.04.26-.09.09.09.04.04.09-.22.09.09.04.09.13,0,0,.04.04.09.04.04-.04-.09-.44.04-.31,0,.09.09,0,.13,0Zm-.18-2.02c.04-.13-.09-.13,0-.26,0-.09,0-.22-.13-.26,0,.09.04.18-.09.13,0,.18.22.35-.04.48.18.04.04.26.22.35.04-.18-.09-.31.04-.44Zm-.09,10.03s-.04-.04-.04-.09c-.04.22-.09.4-.09.57.04-.04.31-.75.13-.48Zm.04-7.53c.04-.13-.13-.13-.13-.04.04.13.04.22.13.31.04-.13-.09-.18,0-.26Zm.04,11.31c.04-.09-.04-.13-.04-.18-.09.09-.13.22-.04.31.04-.04.09,0,.09.09.04-.09,0-.18,0-.22Zm.13-3.65c.09-.04.13-.04.13.04.13.26.04.18-.04.35.09.09.31-.09.22-.18,0-.09.09-.13.04-.22-.04,0-.09.18-.09.09.09-.18-.26-.13-.09-.35q-.13.04-.18.22l-.09-.09c-.13.09-.04.22.09.13Zm.35,3.17c-.26.26-.31-.22-.31.04-.04.18.44.13.31-.04Zm0,1.1c-.13-.18.18-.92-.26-.66.22.04.04.13.13.22q.04.09-.04.13c.18.18-.09.44.18.31Zm.48-19.67c-.13-.18-.26.09-.4.09-.09.22.31.04.4-.09Zm-.22,19.54c-.18-.44-.26.35,0,.44l-.09-.13c.09-.09-.13-.35.09-.31Zm.44-11c-.13-.13-.04-.09-.04-.26-.13.04-.22-.09-.35.09.09.31.13.09.4.18Zm.35,9.29h-.13q.09-.09,0-.13c-.18.62-.18-.13-.35.09.13.22.31.26.48.04Zm-.13-18.18s.09-.04.09-.04l-.04-.04c.09-.09-.04-.13-.09-.18s-.04.04-.04.04c-.04.09-.13.04-.13.13,0,.04-.04.04-.04.09-.26.4.48.26.26,0Zm1.28-.75c-.22.09-.04-.31-.26-.4-.22-.09.09-.62-.26-.4-.09.09.13.04.09.13.04.31.09.18-.09.31-.09-.09-.09,0-.13.04-.09.04-.22.26-.26.09-.04.31.22.04.13.26.13.4.62.26.79-.04Zm-.18.75c-.22-.22-.26.4-.09.22,0-.09,0-.18.09-.22Zm-.09,6.78c-.13.13-.04.26-.04.44.09-.13.04-.26.04-.44Zm.22-7.26c0,.09.09.09.13.09.18-.09-.09-.31-.13-.09Zm.97,6.03s-.04-.09-.04-.13c.04-.09,0-.13-.09-.13-.04.09-.04.18-.09.26,0-.04-.04-.04-.04-.09,0,.35-.04.18-.18.31.09.09.04.22-.09.22l.09.13c-.13-.04-.22-.04-.35-.04,0,.04.09.13.18.09,0,0,.04-.04.09,0,.26.09-.35.35-.09.53.04.04.31.04.31-.04s.09-.13.04-.18c-.13-.09-.09-.22-.09-.31.18-.04-.04-.31.09-.4.04,0,.18.04.13-.04-.04-.13.04.04.13.04.04-.09-.18-.18,0-.22Zm-.44-5.41c0-.09-.13-.22-.26-.22-.22.13.18.35.26.22Zm-.31-.57c0,.13.04.13.13.09.35.04-.04-.35-.13-.09Zm.97.22c-.31-.31-.04-.13-.04-.4-.09-.09-.09,0-.13.04-.13.04-.04.18-.13.22-.13,0,0,.13,0,.22.13-.13.09-.22.31-.09Zm.4,10.25c-.13-.04-.09-.13-.22-.18-.13,0-.04-.26-.26-.22.04.04,0,.09,0,.09.04.04.04.09,0,.18.35-.13-.04.35.48.13Zm-.4-9.9s.04-.09.04-.09c-.09-.04-.04-.09,0-.13.26-.44-.26-.04-.04.22Zm.4,11.22c-.18-.13.04-.44-.18-.09-.04-.09-.18-.04-.22-.18-.18.13.31.26.4.26Zm-.04-.4c-.04-.18-.09-.18-.26-.09.09.04.22.26.26.09Zm.18-1.54c-.13-.09-.26-.09-.26.09.04.22.22.04.26-.09Zm-.18-5.19c.13,0,.22-.04.31-.04-.04-.04-.09-.09-.09-.13.09-.09-.04-.18-.04-.31-.18.22.18.22-.18.48Zm.26,4.18s.22-.09.09-.18c-.18-.04.13-.4.13-.53-.31-.04-.66.22-.22.4-.18.22.09.44-.18.53.09,0,.13.04.18.13.13.04.18-.09.22-.22.09-.13-.13-.09-.22-.13Zm.66,1.8s-.04-.04-.04-.09c-.04-.13-.13.13-.18.18.18-.04.22,0,.18.18.13,0,.18-.22.04-.26Zm.57-11.18c.35.26.44-.35-.04-.18-.04.04-.13-.09-.18-.04-.13.13-.66.13-.35.4.04-.18.26-.09.35-.09s.09-.18.22-.09Zm-.04,4.58c.09-.13-.04-.26.04-.4-.26-.04-.13.26-.04.4Zm.22,4.62c-.04-.13-.13-.53-.22-.22.22,0,.09.35.22.22Zm.31-2.29c-.09.04-.18.04-.26-.09,0,.04-.04.09-.04.13h.04c.04.13.26,0,.26-.04Zm-.04,9.59s0,.04-.04.04c-.04-.04-.09-.13-.09-.18-.31.26.13.62.13.13Zm-.09-15.89s.13-.09.18-.18c-.18-.09-.31-.04-.18.18Zm.26,7.17c-.04-.09-.09-.31-.18-.31-.18.31,0,.13.04.26,0,.09.09.09.13.04Zm.79-8.14c-.48-.48-.18-.13-.57-.13-.09-.09-.09.22-.31.18-.09,0-.09.09-.13.18.04.04.13,0,.13.09.18-.09.4-.22.62-.09.04-.13.18-.18.26-.22Zm-.09,6.65c-.18-.22-.44.22-.53.18-.13-.13-.09-.13-.22-.09-.13.18.04.09.13.09.09.04.13.22.22.04.04-.13.13-.09.09,0,0,.13.13.35.22.35.09-.09.13-.4,0-.44-.18-.13.13.04.09-.13Zm-.48,3.61c-.13,0-.09-.35-.22-.22,0,.04-.09.09.04.13.04,0,.09.18.18.09Zm-.09-10.91c.13,0,.18-.13.26-.22-.09-.09-.13.04-.22.09-.09,0-.09.09-.04.13Zm.66-.66c-.13.09-.4.26-.31.4.09-.13.26-.22.31-.4Zm.31,18.09c.13.26.4.13.18-.13-.04.26-.22.18-.09-.04-.18-.04-.18.18-.31.13,0,.13.18.09.22.04Zm.04-3.87c-.13-.04-.13-.13-.13-.22-.04.04,0,.18-.04.26s.09.04.13.09c-.04-.09-.04-.13.04-.13Zm.22,4.09c-.09-.04-.18-.04-.18.09.04.09-.09,0-.13.04.18.09.22.09.13.26.18-.04.09-.26.18-.4Zm.13-11.44s-.13.04-.13-.04h.09c-.35-.13,0,.13-.18.22.13,0,.31,0,.22-.18Zm.31,12.89c-.13-.13-.13,0-.18-.22-.09.18,0,.4.18.22Zm.04-19.01c.09-.04.13-.18.26-.09.13-.09.26-.31.18-.48-.13.09-.18.22-.22.35-.18,0-.26,0-.22.22Zm.13,14.65q-.04-.13-.13-.09c.04.09.18.18.13.26.09-.04.22-.35,0-.18Zm.22,4.14c-.18-.13-.44-.35-.22-.04.04.13.09.04.22.04Zm-.18-4.67c.18-.18.31-.4.48-.57-.18,0-.44.4-.48.57Zm.48,3.48c-.04-.18-.22-.22-.31-.04-.09-.31-.09.22.09.22.09-.09.04-.4.22-.18Zm0-.48c-.09.04-.18.04-.26.04.04.04.13.09.13.13.04.22.22-.09.13-.18Zm.18-2.86c-.13.04-.13-.04-.13-.09q-.13,0-.09.13c-.31,0,.09.26.22-.04Zm-.22-14.87c.13-.18.44,0,.4-.22-.09-.62-.48-.18-.4.22Zm.09,13.73c0,.09.04.13.09.18.04-.09.04-.13.13-.18-.09-.04-.22-.13-.22,0Zm.26.31c.13,0,.22.04.35.13-.13-.22-.44-.26-.53-.09.04,0,.09.04,0,.09,0,.09.13.04.13.13.26.13-.18-.26.04-.26Zm.35-.35c-.18-.18.13-.35-.09-.31-.04.13-.09.35.09.31Zm0,.09h.22c-.04.18-.18.22-.26.13.04.09.09.18.18.26v-.04c-.04-.09.09-.13.18-.09.18-.13-.13-.53-.31-.26Zm.04-13.16c.09,0,.26-.35.09-.35,0,.13-.09.22-.09.35Zm0,18.18s.13-.04.13.04c-.04.18.04.09.13.09v-.13s-.22-.13-.26,0Zm.18-5.9c.62-.13.35,0,.22-.26-.09.13-.26.09-.22.26Zm.13-7.04s.13.09.09.18v.13c.09-.18.09-.31.09-.48-.09-.22.26-.44.09-.66-.26.04-.13.57-.26.84Zm0,9.11c0,.09.31.04.13.18.35-.04-.09-.48-.13-.18Zm.13,3.08s.04.09.09.13c-.13.04-.13,0-.22-.09.04.22.22.4.35.57.04-.18,0-.62-.22-.62Zm.22-3.61c-.26-.22-.26.09-.18.13,0-.18,0,.04.18-.13Zm-.04-15.84c.35.18.13-.04.31-.09.13-.09-.09-.18-.13-.09,0,.13-.09.09-.18.18Zm.22,16.24c-.04.09-.04.22-.22.26,0,.09.31,0,.13.18.22,0,.18-.31.09-.44Zm.18-2.33c-.13.13-.13.31-.09.44.04-.13.13-.31.09-.44Zm.44,12.1c-.09-.13-.35-.18-.44-.09.18.04.31.04.44.09Zm0-4.67c.04-.09-.04-.04-.09-.09-.09.04.04.18-.13.22.13.04.22-.09.22.09.09-.09,0-.13,0-.22Zm0-15.8c-.18.09-.22.18-.18.35.09,0,.09-.22.18-.35Zm.57,9.68c-.04-.18-.04-.09-.22-.04,0-.04,0-.09.04-.13-.22.09-.13-.22-.31.09.31.04,0,.18.48.09Zm-.26,7.26c0-.35-.31-.35-.18-.04q.09,0,.18.04Zm.13-7.96c0-.13-.04-.26-.22-.18-.13.09.04.26.22.18Zm0-11.79c.13,0,0-.13.13-.13-.09-.13-.26.18-.26-.13-.26.09,0,.26.13.26Zm.09,6.29c-.09.04.04.13.04.18.13-.04.13-.18-.04-.18Zm.62-7.35c.09-.09,0-.22.04-.35-.13,0-.13.26-.04.35Zm.26.75c-.09-.09-.09-.31-.18-.31-.13.18-.04.53.18.31Zm.09.26c.13,0,.22-.22.09-.22-.09.04-.18.18-.09.22Zm.31,23.68c0-.09,0-.22-.09-.26-.09.09-.04.22.09.26Zm.31-13.64c-.09,0-.13.04-.09-.04-.22,0,0,.13-.18.18.13.04.22,0,.26-.13Zm-.09-10.21s.04-.04.04-.09l.09.13s0-.22.04-.31c-.09,0-.18.09-.18.26Zm.62,13.55c-.09-.09-.13.13-.18,0,0,0-.09,0-.09.04.04.26.13.13.26-.04Zm-.13-1.72c.13-.04.09-.22-.04-.26-.13.04,0,.18.04.26Zm.09.79c.09,0,.35,0,.31-.13-.09-.09-.13.04-.22.04,0-.04-.13.04-.09.09Zm.09-1.67c0,.13.53.57.57.22-.22.22-.4-.13-.57-.22Zm.26,1.85c-.13-.09-.22.13-.18.22-.04.04.04.09.04.13.13-.18-.04-.22.13-.35Zm.13-12.85c.09-.04.18.09.26,0q-.09-.31-.26,0Zm.04,14.7c0,.13.13.18.22.09.04-.26-.18-.22-.22-.09Zm.44-.31c-.18-.22-.48-.26-.31.09.04,0,.13-.04.13,0,.09.13.18,0,.18-.09Zm-.31-16.46c.04.22.09.04.13-.13-.04,0-.04-.04-.04-.04-.04.09-.22.09-.09.18Zm.97,17.12c-.09,0-.13-.09-.13-.13-.26.18-.18.04-.31-.13-.13.13.04.4.22.26h.04c.04.09.13.09.18,0Zm-.44-.35c.13-.04.18,0,.31-.13-.13-.09-.26,0-.31.13Zm.09-3.08c0,.09.09.18.18.18.26,0-.09-.26-.18-.18Zm.79-1.36c-.13-.09-.22.09-.18.18-.04.13.09.13.13.04-.13-.09,0-.13.04-.22Zm.26-.26s-.09-.09,0-.09c.35-.04-.13-.48-.22-.31.09.09.22.13.31.22-.09.09-.18-.18-.31,0-.04.09-.22.26-.04.31.13-.04.09-.22.26-.13Zm-.18-12.23c.09.09-.09.22.04.31v-.18s.09.04.09.09c.04-.22-.18-.13-.04-.35-.09,0-.18.04-.09.13Zm.44,16.06c-.04-.18-.18-.09-.31-.04.09.09.18.09.31.04Zm-.13-.44c-.13.09.13.26.22.31.04-.09-.13-.26-.22-.31Zm.62-.75c-.09.04-.44-.18-.31.04.04,0,.09.04.04.09-.09.13.13.31-.13.35.26.13.04.22.09.4.09.04.13.13.22.04-.31-.04,0-.31-.04-.44-.13-.04-.04-.13-.04-.18.04-.13.04-.18.18-.13.09-.09.18-.4,0-.18Zm-.13-.31s0-.13-.09-.13c-.13.09,0,.35.09.13Zm.09,9.42c-.26.04-.09.18.04.18.04-.04-.04-.13-.04-.18Zm-.09-12.1c0,.09.09.04.18.04-.04-.13-.04-.22,0-.31-.13-.09-.09.22-.18.26Zm.13,1.45s.13.04.22.09c.31-.22-.13-.26-.22-.09Zm.26-2.68c.22,0,0,.13.22.22.04-.09-.09-.35-.22-.22Zm.44,2.77c-.09,0-.18.09-.26.04-.13,0-.04.04-.09.13.04.04.26-.13.35-.18Zm.13-12.63c.09-.18.13-.31.04-.57-.22.09-.35.66-.04.57Zm.31,11.84c-.13.04-.26.22-.48.18.09.09.22.13.31.09,0-.13.13-.13.18-.26Zm-.04,12.81c-.18.04-.22.22-.04.26.13.04.04-.18.04-.26Zm.18-9.46c-.04-.09-.13-.09-.22-.04.04.09.13.22.22.13.09-.04,0-.04,0-.09Zm-.13-3.39c.18-.09.13-.18,0-.26-.09.04-.09.18,0,.26Zm.35-12.28h.04c-.22.04.22.79.04.09-.04-.53-.13-.09-.31-.31-.09.13.13.31.22.22Zm.97,17.03c0,.09-.13.09-.18.18.04.04.04.13.09.18.04-.09.26-.62.09-.35Zm.31-12.45c.22.18.7-.53-.04-.4v-.04c-.35.18-.22.31.04.44Zm0-1.45c0,.26.57.09.04-.13v.04h-.13l.09.09Zm.35-1.5c.13,0,.18-.13.09-.22-.04.09-.22.18-.09.22Zm.44,14.79c-.09-.04-.18.13-.18-.04-.31,0-.04.4.18.04Zm.31-2.42s0-.53-.18-.31c0,.09.09.22.18.31Zm.04-8.54c0,.22.26.09.31.31-.09-.88-.62,0-.31-.31Zm.22-2.02c.13.09.22.26.35.09-.18-.04-.31-.09-.26-.31q-.09.04-.09.13c-.09-.04-.13-.09-.18-.09v.22c-.35-.18.26.44.18-.04Zm-.09,12.28q0-.18-.18-.26c-.09.22.13.44.35.31.04-.04-.13,0-.18-.04Zm.53-.13c-.09-.22-.26.13-.44.04.18.26.31-.04.44.09h.18c.04-.18-.09-.35-.18-.13Zm-.09,9.33c-.09.04-.22.09-.09.18.09-.04.22-.13.09-.18Zm.57-9.77c0-.35-.53.26-.22.09.04-.13.09-.13.22-.09Zm.18.48c-.13-.04-.18-.04-.22.04.04.13.22.09.22-.04Zm.92-.18h-.18c0,.09.09.13.13.22.04-.09.04-.13.04-.22Zm.13-14.21c.18-.04.4-.22.57-.35-.22,0-.44.18-.57.35Zm.53,14.43c.04.09.04.26.13.22.04-.18.09-.48-.13-.22Zm1.67,11.53c-.09-.22-.35-.4-.57-.4-.18.13-.4.22-.48.44-.13.18-.18-.13-.26-.09-.04.09.09.22-.04.31.66.22.18-.13.48-.09.13.18.48.26.62.09,0-.04.09,0,.13,0-.04-.13,0-.22.13-.26Zm-.97-25c.09.31.13-.09,0-.18-.04.09-.04.13,0,.18Zm.09,9.59c.04-.09.09-.18.18-.22,0-.18-.26.09-.18.22Zm.97-5.15c0-.13.13-.13.04-.22-.31-.13-.13.04-.04.22Zm.4.18c.09.09.22,0,.22-.13-.09-.13-.22.04-.22.13Zm.31,21.39c.04-.09-.09-.22.04-.31q-.13,0-.22-.13c-.09.18,0,.4.18.44Zm-.04.7c-.09,0-.13.22-.04.22.13,0,.18-.18.04-.22Zm-.09-10.43c0,.13.04.22.04.31.09.53.22-.22-.04-.31Zm.18.57c-.09.13.04.4.13.53,0-.13-.04-.35-.13-.53Zm.44,8.93h-.04c0-.31-.31-.22-.4,0,.09.22.4.31.44,0Zm.44-21.21c.09-.04,0-.13-.04-.18-.09.13-.22.31.04.18Zm0-.26s.09-.09.18-.13c-.09-.04-.22.09-.22-.04-.13-.13-.13.13.04.18Zm.18,12.85c-.09-.04-.13-.09-.18-.09q-.09.04-.04.09c0,.22.13.04.22,0Zm.75-3.92c.13,0,.09-.26,0-.13-.04.18-.22,0-.31,0s-.13.09-.04.13.22-.04.35,0Zm-.26-8.58c0-.09.04-.22-.09-.26-.09.09-.04.22.09.26Zm.22,8.18s-.13-.18-.22-.18c-.22.04.18.22.22.18Zm.04,8.8c.35.04.35-.57-.04-.53-.18.13-.31.53.04.53Zm.26,4.18s.04-.09,0-.13c-.04-.04-.04-.13-.13-.13,0,0-.04-.04-.04-.09.04-.18.18-.31.04-.48-.22-.26-.44.31-.22.44.04.09.04.13,0,.18-.18.18.13.22.09.35s.18.18.26.26c.04-.13,0-.26,0-.4Zm-.04-3.56c-.18-.13-.18.4.04.35.09-.13-.18-.26-.04-.35Zm.7,1.14c-.13-.09-.22,0-.22.13-.04.26-.18.04-.22.22-.09-.18-.18-.35-.22-.53-.31.53.04.35.18.62.13.13.53-.31.53-.44.04-.09-.04-.18-.04,0Zm-.35-13.29c.22,0,.4-.26.18-.4-.09.22,0,.18-.18.4Zm.18-4.88c.09-.09.13-.22,0-.31-.13.04-.09.18,0,.31Zm.48,7.7c.13-.09.04.13.18.13,0-.18.13-.22.26-.22-.09-.18-.31.04-.35-.09,0-.09-.09-.04-.13-.04-.18.09-.13.22.04.22Zm.13.57c.13-.13.18.13.13-.22-.13-.13-.13.04-.22,0-.13-.26-.31.22-.09.18.04,0,.04-.09.04-.09.09,0,0,.22.13.13Zm-.13-7c0,.09.04.22.13.22.13-.04,0-.18-.13-.22Zm.18,14.74l-.04.04c.04.13.31.09.18-.04,0-.09.13-.13.18-.09.7-.48-.7-.79-.31.09Zm-.04-17.87c0,.13.13.18.04.31l.04.09s.18-.09.09-.13c-.04-.04-.04-.13-.04-.18-.04-.09.04-.09.09-.09-.13-.22-.13.04-.22,0Zm.4-.18s-.09-.13,0-.22c.04-.04,0-.09,0-.18-.04.04-.04.26-.13.13,0-.04,0-.09-.04-.13-.04.18,0,.31.18.4Zm-.18,8.41c.04.13.04.18.04.31l.22-.22s0-.04-.04,0c-.13.09-.04-.09-.22-.09Zm.04-5.02c-.04.09.09.04.13.04v.18c.18-.04-.04-.31.09-.4-.13-.09-.13.13-.22.18Zm0,6.73c.09.04.18.04.26.09-.13.18.04.04.13.04-.04-.09-.04-.18-.13-.22-.04.13-.18,0-.26.09Zm.18-10.43c.13.22.31-.09.04-.09,0,0,0,.04-.04.09Zm.22,18.83s-.04-.09-.09-.09c-.13,0-.09.18-.04.22.18.09-.09.22.04.26.22-.04.04-.22.09-.4Zm-.09-9.15c.13.04.26.04.35,0,0,.26.04.09-.09.26.09,0,.31,0,.22-.13-.04-.18,0-.35-.26-.35-.13,0,.04.22-.22.22Zm.62.84c.35-.04.13-.44-.09-.35-.13.09-.22-.04-.35,0-.04.09.09.18-.04.31.53-.13.26,0,.18-.26.09.18.26-.09.26.13.26,0,0,.04-.04.18.22.22.57-.04.09,0Zm.66,9.55c-.09-.26.09-1.23-.4-.84-.13.04-.09.13-.04.26.04.09-.09.18.04.22.04,0,.04.04.04.04-.13.18.09.35.09.04.13.04.18.18.26.26Zm-.09-19.58c.09-.09.09-.22.18-.35-.04,0-.13-.04-.13.09,0,.09-.09.18-.04.26Zm1.23,19.1c-.7.4-.4-.09-.92-.09,0,.13.4.35.48.44.18.04.26.09.31.31.04-.13.04-.22.22-.18-.31.35.22.88,0,.35.35,0,.09-.7-.09-.84Zm-.18,1.06s-.04-.09-.09-.13c-.09.09-.04.18,0,.26.04,0,.09-.04.09-.13Zm2.99-5.68c-.18-.04-.4-.09-.44.09.18,0,.31.04.44-.09Zm.53-.26c-.18-.13-.04.13-.18.13-.09,0-.09-.04-.04-.13-.44.18.44.35.22,0Zm1.14-13.11c-.04-.13-.09-.18-.18-.26-.13.13,0,.22.18.26Z"/></g></g></g></svg>