<?xml version="1.0" encoding="UTF-8"?><svg id="Layer_1" xmlns="http://www.w3.org/2000/svg" viewBox="0 0 12.58 12.73"><defs><style>.cls-1{fill:#3b2416;}</style></defs><g><path class="cls-1" d="m1.9,10.01c0-.07,0-.13.03-.17s.05-.09.09-.13c.04-.04.1-.08.18-.12.08-.04.18-.09.3-.16,0,0-.03-.09-.07-.27-.04-.18-.09-.42-.15-.71-.06-.29-.14-.61-.22-.98-.08-.36-.18-.73-.28-1.1-.1-.37-.21-.72-.33-1.05-.12-.33-.24-.61-.36-.85,0-.01-.02-.06-.04-.14-.02-.08-.03-.16-.03-.23.04-.13.12-.22.22-.3.1-.07.21-.11.32-.13.12-.01.23,0,.34.06.11.05.2.13.26.24.12.23.23.48.32.76.09.28.18.58.25.88.07.31.14.62.2.94.06.32.12.63.18.93.06.3.12.59.19.86.07.27.14.51.22.72.43-.13.8-.21,1.13-.23.33-.02.6-.05.8-.08-.03-.08-.06-.18-.09-.31-.03-.12-.06-.25-.08-.38-.03-.13-.05-.25-.07-.36-.02-.11-.04-.19-.04-.24.04-.19.12-.32.24-.4.13-.08.24-.11.36-.11.03,0,.07,0,.12.02.06.03.12.1.18.22.07.12.13.26.21.43.07.17.14.35.21.55.07.19.12.38.17.55.05.17.09.32.12.45.03.13.05.21.05.24,0,.13-.05.23-.15.31-.1.08-.28.12-.56.12-.15,0-.34,0-.56,0-.23,0-.46.01-.7.03-.24.02-.47.05-.69.09-.22.04-.4.11-.54.19-.02.08-.04.15-.06.22-.02.07-.05.13-.08.19s-.07.1-.11.13c-.05.03-.11.05-.17.05-.1,0-.22-.02-.36-.05-.14-.03-.27-.07-.4-.13-.13-.05-.25-.12-.34-.19-.1-.07-.16-.15-.18-.24-.02-.06-.03-.11-.03-.16Z"/><path class="cls-1" d="m8.26,11.1c-.16,0-.3-.1-.43-.29-.13-.19-.24-.44-.35-.74-.1-.3-.2-.63-.29-1-.09-.37-.17-.72-.24-1.07-.07-.34-.14-.66-.2-.94-.06-.28-.12-.49-.17-.62-.14,0-.28,0-.42.02-.13.01-.27.02-.42.02-.06,0-.12-.01-.19-.04-.07-.03-.14-.07-.2-.11-.06-.05-.11-.1-.16-.17-.04-.07-.07-.14-.07-.21,0-.09.04-.22.13-.4.23-.04.42-.08.55-.11.14-.04.24-.08.32-.11s.12-.07.15-.1c.02-.03.03-.06.03-.09,0-.05,0-.1-.02-.15-.02-.05-.02-.09-.02-.14,0-.06.02-.11.06-.16s.08-.09.14-.12c.05-.03.11-.06.18-.08.07-.02.13-.02.18-.02.11,0,.19.03.25.09.06.06.12.13.17.2h0s.07.08.08.08c.21-.05.45-.15.72-.3.27-.15.54-.29.82-.43.15-.07.31-.14.48-.23.17-.08.34-.16.51-.23.17-.07.32-.13.47-.17.15-.05.27-.07.38-.07s.2.05.29.16c.09.11.13.26.13.46,0,.06,0,.13-.02.2-.01.07-.03.15-.05.24-.12.04-.28.11-.47.18-.2.08-.41.16-.64.25-.23.09-.47.18-.71.27-.24.09-.48.18-.7.25-.22.08-.41.15-.58.2s-.29.09-.38.11v.08c.06,0,.12,0,.18,0h.19c.16,0,.35,0,.56,0,.21,0,.42,0,.63,0,.26,0,.49.01.69.03.2.02.37.06.51.13.14.06.25.15.32.25.07.11.11.25.11.42,0,.07-.01.14-.04.21-.03.07-.07.15-.14.24-.14-.03-.34-.07-.59-.11-.25-.04-.52-.09-.8-.14-.29-.05-.57-.09-.85-.13-.28-.04-.51-.06-.7-.08,0,.16.02.34.08.55.06.21.13.44.23.68.09.24.19.49.3.74.11.25.21.49.3.72.09.23.17.45.23.64.06.2.09.36.09.49,0,.18-.06.33-.19.45-.13.12-.27.17-.43.17Z"/></g><path class="cls-1" d="m4.17,5.56c-.06,0-.12,0-.19-.03s-.11-.05-.12-.1c-.08-.3-.13-.55-.17-.72-.03-.18-.06-.31-.08-.4-.02-.09-.04-.15-.05-.17-.01-.03-.03-.04-.06-.04-.06,0-.14,0-.24.01-.1,0-.19.01-.29,0-.1,0-.18-.02-.25-.04-.07-.03-.12-.08-.14-.15,0-.01,0-.04,0-.09,0-.13.04-.23.11-.29.07-.06.16-.1.26-.11.1-.02.21-.02.32-.01.11,0,.2,0,.28,0,.03,0,.05-.02.04-.03,0-.02-.02-.07-.05-.16-.03-.09-.08-.23-.14-.43-.06-.2-.14-.48-.23-.85,0-.03,0-.05,0-.07,0-.02,0-.04,0-.06,0-.1.04-.17.11-.21.08-.04.16-.06.25-.06.1,0,.18.04.26.11.08.07.14.16.2.27.05.1.1.22.15.35.04.13.08.24.11.35.03.1.06.19.08.27.03.07.05.11.07.11.06-.01.13-.07.2-.17.07-.1.15-.21.24-.32.09-.11.19-.22.29-.31.1-.09.22-.14.35-.14.06,0,.13.02.2.05.07.03.13.07.18.12.05.05.09.11.13.18.03.07.05.13.05.2,0,.13-.06.25-.17.34-.11.1-.24.18-.38.25-.14.07-.26.13-.38.19-.11.05-.17.11-.17.16,0,.06.05.12.14.17.1.05.2.1.31.17.11.06.22.14.31.23.1.09.14.21.14.36,0,.07-.03.13-.1.19-.07.06-.17.09-.31.09-.08,0-.15-.02-.23-.06-.08-.04-.16-.09-.23-.13-.07-.05-.14-.09-.2-.13-.06-.04-.12-.06-.16-.06-.02,0-.03.02-.03.07,0,.04,0,.1,0,.16,0,.06.01.13.02.19,0,.06,0,.1,0,.13,0,.12.03.28.08.47-.12.08-.22.13-.29.17-.07.04-.14.06-.22.06Z"/><path class="cls-1" d="m8.93,8.07s.08-.08.16-.14c.09-.06.18-.12.29-.19.11-.06.21-.12.31-.17.1-.05.17-.07.23-.07.1,0,.18.02.23.07.05.05.07.1.08.17,0,.06,0,.13-.02.19-.02.06-.05.11-.08.14-.04.04-.11.07-.19.1-.08.03-.17.06-.27.09-.09.03-.18.06-.27.08-.09.03-.16.06-.22.1-.05.03-.1.04-.14.02-.04-.02-.08-.05-.11-.09-.03-.04-.04-.09-.04-.15,0-.05.01-.11.05-.15Z"/><path class="cls-1" d="m4.15,10.81s.01-.08.02-.09c.01-.02.04-.03.09-.04.05,0,.12-.02.21-.03.09,0,.22-.03.38-.06.16-.02.32-.05.49-.08.17-.03.33-.06.49-.1.04-.01.09,0,.13,0,.04.01.07.03.1.06.03.03.05.06.06.1.01.04.02.08,0,.12,0,.03-.05.06-.12.08-.07.03-.16.05-.27.07-.11.02-.22.04-.35.06-.13.02-.25.04-.37.05-.12.02-.22.03-.31.04-.09.01-.15.02-.19.03-.08.02-.14.02-.19.01-.05-.01-.09-.03-.12-.06-.03-.03-.05-.06-.06-.09,0-.04-.01-.07,0-.09Z"/><path class="cls-1" d="m7.29,3.88s-.01-.08,0-.1c0-.02.03-.04.08-.06.04-.02.11-.05.19-.08.09-.03.2-.08.35-.16.14-.07.29-.13.45-.21.15-.07.3-.15.45-.23.04-.02.08-.03.12-.03.04,0,.08.01.11.03.03.02.06.04.08.08.02.03.04.07.04.11,0,.03-.03.07-.09.11-.06.04-.14.09-.24.14-.1.05-.2.1-.32.16-.12.05-.23.1-.34.15-.11.05-.2.09-.29.12-.08.04-.14.06-.17.08-.07.04-.13.06-.18.06-.05,0-.09,0-.13-.02-.04-.02-.06-.04-.08-.08-.02-.03-.03-.06-.03-.09Z"/><path class="cls-1" d="m9.29,8.82c.02-.06.06-.1.12-.11.06,0,.12,0,.18,0,.06.01.12.03.17.04.06.02.12.03.18.05.06.01.11.02.17.02.11,0,.2,0,.26,0s.11,0,.14.01c.03,0,.05.01.06.03.01.01.02.02.02.04.01.03.02.07.03.11,0,.04,0,.08,0,.11,0,.04-.03.08-.05.11-.02.03-.06.06-.11.08-.02.01-.07.02-.13.01-.07,0-.14-.01-.22-.02-.08-.01-.17-.03-.26-.05-.09-.02-.17-.04-.25-.06-.08-.02-.14-.04-.19-.06-.05-.02-.08-.04-.08-.05-.03-.11-.04-.19-.02-.25Zm.15.82c.02-.06.06-.1.11-.13.04-.02.09-.03.16-.02.07,0,.15.02.24.04.05,0,.12.02.21.03.09.02.18.04.28.06.09.03.17.06.24.1.07.04.11.09.11.14,0,.08,0,.14-.01.19-.02.05-.05.09-.11.14-.03,0-.07,0-.14-.02-.07,0-.14-.02-.23-.03-.09-.01-.18-.03-.28-.05s-.19-.04-.27-.07c-.08-.03-.16-.06-.22-.1-.06-.04-.1-.08-.11-.12-.02-.06-.02-.11,0-.17Z"/><g><path class="cls-1" d="m.21.45c0-.07-.06-.04-.07-.05.01.12.08.05.07.05Z"/><polygon class="cls-1" points=".35 1.59 .33 1.57 .39 1.74 .35 1.59"/><path class="cls-1" d="m.35,2.66c.11-.1-.02-.39.02-.58l.02-.03-.09-.09c.01.23.07.53.04.69Z"/><path class="cls-1" d="m.12,3.23s.04.12.01-.13c0,.01,0,.02-.01.02,0,.02,0,.05,0,.11Z"/><path class="cls-1" d="m.12,3.12c0-.11-.03.07,0,0H.12Z"/><path class="cls-1" d="m.15,3.64l-.04-.15s-.03.16-.05.11c.02.15.04.12.08.03Z"/><path class="cls-1" d="m.23,3.78l-.02-.08s-.01.03.02.08Z"/><path class="cls-1" d="m.18,3.54l.03.16s.05-.02-.01-.07c.03.01,0-.02-.02-.09Z"/><path class="cls-1" d="m.19,3.45c.02-.08.04-.19.07-.04-.01-.28-.09-.24-.07.04Z"/><path class="cls-1" d="m.46,2.71l.03-.11-.04-.1s-.03.21,0,.21Z"/><path class="cls-1" d="m.09,4.56s.06-.05.09-.06l-.03-.11c-.02.06-.03.16-.06.17Z"/><path class="cls-1" d="m.18,4.5l.04.16c0-.15-.01-.17-.04-.16Z"/><polygon class="cls-1" points=".34 3.81 .26 3.54 .34 3.86 .34 3.81"/><polygon class="cls-1" points=".09 5.19 .04 5.1 .12 5.26 .09 5.19"/><path class="cls-1" d="m.1,5.6c-.04-.07-.07.09-.1.02,0,.11.04.21.08.3-.02-.09-.01-.19.02-.32Z"/><path class="cls-1" d="m.13,6.07s-.03-.09-.05-.15c0,.05.02.1.05.15Z"/><path class="cls-1" d="m.21,4.94s-.05.04-.06.13l.06-.06s0-.04,0-.06Z"/><path class="cls-1" d="m.21,5.01h0c0,.07,0,.12,0,.14,0-.02,0-.06,0-.14Z"/><path class="cls-1" d="m.21,4.93s0,.01,0,.02c0,0,0,0,0-.02Z"/><path class="cls-1" d="m.29,4.24c.04.1.07.3.13.1-.04-.07-.07.04-.13-.1Z"/><path class="cls-1" d="m.29,4.85v-.17s-.03.03-.04-.01l.04.19Z"/><polygon class="cls-1" points=".31 4.93 .29 4.85 .28 4.91 .31 4.93"/><path class="cls-1" d="m.19,5.77c.03.08.03.16.03.25.01-.1.02-.2.02-.3-.02-.01-.06-.06-.05.05Z"/><path class="cls-1" d="m.2,5.4s0,.01,0,.02c0-.01,0-.02,0-.02Z"/><path class="cls-1" d="m.22,6.93s0,0,.01-.01c0,0,0,0-.01,0v.02Z"/><path class="cls-1" d="m.25,5.7c.01-.07,0-.12-.02-.16,0,.06.01.12.01.18,0,0,.01,0,.01-.02Z"/><path class="cls-1" d="m.16,6.32s.02-.08.03-.13c-.02.04-.05.12-.03.13Z"/><path class="cls-1" d="m.19,5.44s0,0,0-.01c-.01.02,0,.02,0,.01Z"/><path class="cls-1" d="m.19,5.44s.02.07.04.1c0-.05-.01-.09-.02-.12,0,0-.01.02-.02.03Z"/><path class="cls-1" d="m.63,7.21c-.06-.01-.11-.21-.05-.38-.04-.17-.24-.06-.34.09.03,0,.05,0,.08.18.03-.06.07-.38.13-.24.03.23-.02.19-.05.3.07-.09.11.29.21.24l-.04-.2s.04.07.06.01Z"/><path class="cls-1" d="m.24,6.59v-.07c-.02.08-.04.14-.09.24.03.12.05.14.07.15v-.35s.02.02.02.02Z"/><path class="cls-1" d="m.23,6.2c.06.06.09.23.16.12,0-.21-.05-.15-.08-.27.02.33-.04-.1-.07.15-.01-.07-.01-.13-.02-.18,0,.06-.02.12-.03.17,0,0,0,0,0,0h0s0,0,0,0c0-.01.01-.02,0,0,0,0,0,0,0,0,0,0,.02,0,.02.02-.01.1-.02.02-.02-.02,0,0,0,0,0,0,0,0,0,0,0,0l.03.34c0-.07,0-.16,0-.32Z"/><path class="cls-1" d="m.55,4.52s-.01,0-.01.01c0,.02.01.03.01-.01Z"/><path class="cls-1" d="m.51,4.66s-.03-.04-.03-.12c.02-.07.03,0,.05,0-.02-.05-.05-.17-.08-.02v.02c-.01.14-.09.31-.1.29.06-.04.1-.07.15-.16Z"/><path class="cls-1" d="m.39,5.44l.03.28.06-.14h-.03c.01-.15-.03-.12-.05-.14Z"/><polygon class="cls-1" points=".19 6.96 .12 6.93 .22 7.09 .19 6.96"/><polygon class="cls-1" points=".2 7.33 .14 7.31 .17 7.41 .2 7.33"/><path class="cls-1" d="m11.81,8.25l-.02-.08s.01.06.02.08Z"/><path class="cls-1" d="m11.81,8.84h.03s-.03-.02-.03,0Z"/><path class="cls-1" d="m4.58,12.6c.12.05.25.14.24.07l-.04-.06c-.08.01-.15,0-.2,0Z"/><path class="cls-1" d="m10.69,12.22s-.02-.01-.03-.02c-.03.02-.06.04-.08.06.03-.01.07-.03.12-.04Z"/><path class="cls-1" d="m10.77,11.95l.16.04s-.09-.03-.16-.04Z"/><path class="cls-1" d="m11.74,5l-.07-.1c0,.15.03.08.07.1Z"/><path class="cls-1" d="m.22,11.05c-.03.1-.04.19-.04.26.04-.12.09-.22.04-.26Z"/><path class="cls-1" d="m12.49,8.48c-.01-.05-.02-.07-.04-.07.01.05.02.08.04.07Z"/><path class="cls-1" d="m.18,11.6s0-.04.02-.05c-.01-.08-.02-.15-.02-.24-.03.09-.04.2,0,.3Z"/><path class="cls-1" d="m5,.76s-.02,0-.03,0c0,0,0,0,.03,0Z"/><path class="cls-1" d="m1.57.11s.09,0,.14,0c-.03,0-.07,0-.14,0Z"/><path class="cls-1" d="m.17,8.79c0-.08,0-.01,0,0H.17Z"/><path class="cls-1" d="m.42,8.41s.02.03.03.03c-.02,0-.03-.02-.03-.03Z"/><path class="cls-1" d="m.71,12.23s0,0,0,0c-.01-.01-.01-.01,0,0Z"/><path class="cls-1" d="m.2,8.67s-.01.06-.02.1c0-.02.01-.05.02-.1Z"/><path class="cls-1" d="m.17,8.69s0-.05,0-.07c-.01,0-.02,0,0,.07Z"/><path class="cls-1" d="m.17,8.89s0-.09,0-.12c0,.02,0,.02-.01.02,0,.02,0,.05,0,.11Z"/><path class="cls-1" d="m11.31.59s-.01,0-.02,0c-.08.03-.04.02.02,0Z"/><polygon class="cls-1" points="6.58 11.94 6.58 11.94 6.59 11.94 6.58 11.94"/><path class="cls-1" d="m6.86,11.89c-.12.08-.18.07-.27.05l.09.19.18-.24Z"/><path class="cls-1" d="m11.79,6.82l-.06.19c-.1-.23-.06-.4-.14-.22.2.03.02.75.22.78l-.04.13s0-.04,0-.08c-.1.25.15.18.12.51-.02.11-.04.19-.07.11l.05.25c0,.07-.04.05-.03-.02l.02.38h0c.03.05.08.17.1.23-.03.1-.02-.05-.05-.02l.05.21c-.05.09-.1-.09-.1-.23-.2.2.05.17-.07.6l-.03-.2c-.11.13-.07.28-.14.51.04-.05.18-.45.23-.22-.02.06-.02.15.02.27-.07,0-.05.12-.05.27h-.09c.03.15.08.14.12.24,0,.18-.08.22-.14.26-.02.29.12-.2.14.14-.04.24,0,.41.06.7,0,.02,0,.04-.01.05,0,0,0,0-.01,0,0,0-.01,0-.02,0,0,0-.01-.02-.02-.03,0,0-.01,0-.02,0,0,0,0,.01,0,.02h0s.01.02.02.02c.01.01.03.03.04.04,0,.02-.03,0-.04,0,.01.03.04.04.06.06.02.02.05.04.06.11.05.04.02.09,0,.12-.06-.02-.12-.04-.17-.05-.05,0-.08,0-.11.03-.02-.01-.02-.03-.01-.04,0-.02,0-.03,0-.05-.01,0-.03.02-.04.02,0,0-.01,0-.03,0-.01,0-.03,0-.04,0-.05.01-.08.02-.11.03-.06.02-.12.04-.26.09l-.24-.06c.17.07-.05.16-.24.22.06.03.11.06.15.08l-.31.05s0-.05.04-.09c-.02,0-.04.02-.06.02-.11-.03-.05-.09.03-.14.04.02.08.04.11.06.08-.06.15-.12.13-.18-.02.01-.06.02-.1.03.02-.02.03-.03.02-.04-.01,0-.04.01-.09.04l-.07-.11-.02.04-.4-.07c-.29.11-.54.26-1,.31.11-.08.02-.13.03-.22.13.1.36-.04.59-.02-.12-.01-.1-.05-.07-.07l-.42.09c0-.08-.09-.06-.2-.09.08.15-.32.1-.49.14-.01-.05.03-.1.24-.09-.23-.11-.3.17-.53.08.05,0,.08,0,.1-.02-.12.04-.41,0-.35-.03h.05c-.34-.02-1.04,0-1.09.12,0-.02.04-.15.07-.18l-.61.42c.05-.11-.15-.37.13-.43-.08-.02-.18-.03-.35,0,.06.02.14.16.06.17-.21-.12-.14-.06-.4-.17.08.02,0,.19-.14.19.02-.03-.01-.17.04-.19l-.33.17c.08-.03.01-.14-.06-.19.03.03-.28,0-.37.01l.14.04c-.37-.03-.37.23-.73.23.04-.03.11-.21-.08-.23-.09.09-.38.41-.7.48l-.06-.05-.25.06c.16-.13.59-.4.83-.5-.14-.04-.04-.06-.25-.05-.07-.05.11-.07.17-.07l-.48-.03c.02.1-.37.1-.35.18l.52-.1c.02.1-.3.28-.64.26-.09-.04.07-.18.06-.21-.04.03-.32.07-.36.04l.15-.05c-.19-.04-.31.13-.54.04-.08,0-.24-.13-.25-.07.13.11.15.46.07.55-.03,0-.41-.11-.5-.16-.13-.09.2-.21.08-.29,0,.03-.08.06-.11.07-.08-.02.03-.08-.15-.07-.03.1-.37,0-.09.09-.09.01-.13,0-.19,0-.03,0-.05,0-.08-.01-.02,0-.03,0-.05,0-.02,0-.05,0-.06,0,.02.03,0,.09-.09.14-.08.05-.22.1-.33.11.03-.03,0-.06,0-.07-.05,0-.09,0-.12,0,0-.15.02-.27.03-.38,0-.06.01-.11.01-.17,0-.06,0-.13,0-.2.02-.03.05-.19.1-.12-.02-.05-.05-.09-.05-.2.09-.2.01.23.12.08-.06-.01-.08-.27-.12-.42-.09.05-.02.34.02.49-.12,0-.26-.26-.31-.61-.03-.28.08-.12.06-.17.02-.53-.22-.45-.13-.88.08-.17.16,0,.22-.05.03.23-.05.35-.05.5l.04-.19c.03.07.05.22.02.31.07-.15.01-.89.08-1.29-.03-.07-.05-.2-.09-.14v.13c-.05.12-.08-.24-.11-.08-.05-.17-.12-.36-.08-.61l.09-.05s-.05.16-.03.23c-.04-.1.12-.37,0-.48l-.06.17c-.05-.17-.14-.39-.11-.6-.09.1.01.05-.09.2.13-.13,0,.55.13.34-.12.16-.05.27-.16.48.03,0,.06-.07.04.11,0,0,.02.03.03.04,0,0,0,0,0,.01,0,0,0,0,0,0,0,0,0,0,0,0,.01-.04.03-.08.05-.09.07.09.07.38.1.47-.01.11-.03-.04-.07.01l.05.14c-.07.01-.11.28-.15.03v.23c-.04.13-.06.32-.03.43-.01.11.07.27.02.18l.04.36h-.02c0,.35.11.73,0,1.13,0,.03,0,.06.01.09,0,0,0,.02,0,.02,0,.01,0,.02,0,.04,0,.03,0,.05,0,.08,0,.11,0,.24,0,.4-.02.03-.04.06-.06.1,0,.09,0,.23,0,.37.22.01.45.03.54,0,.05.04.17.06.31.07.04,0,.08,0,.12,0,.03,0,.05,0,.08,0,.05,0,.09,0,.14,0,.2,0,.41-.03.54-.02v-.08c.19,0,.37-.02.6-.05v-.07c.18-.05.49.05.8.04-.02.03-.1.02-.16,0,.37.15.78-.11,1.12,0,.08-.02.14-.02.2,0,0,0-.01,0-.02,0,0,0,.02,0,.03,0,.04.01.08.02.12.04-.04-.02-.07-.03-.1-.04.06,0,.16,0,.26-.03l.04.07s.01,0,.02,0c.09.03.08-.03.03-.09.05-.01.09-.03.13-.04.08.12.25-.04.36.08.06-.06.48-.05.53-.17,0,.02.03.02-.02.03.11.01.21.03.31,0l.05.09.23-.12c.14.06.2.09.06.16.34-.11.28-.04.57-.15v.06c.09,0,.26-.08.32-.03.23.11,1.15.02,1.74.12-.12-.17.28.08.3-.06.03.04.12.06.02.1.3-.04.46.06.67-.05.03.04-.07.06-.03.08.02,0,.1-.04.13-.01.03.02-.04.03-.09.05.31,0,.34-.13.36-.25.16.06.24.05.35-.03.05.04.15.08-.05.09.11,0,.66.06.67-.04.02.01.05.01.09.01.02,0,.04,0,.05,0,0,0,.02,0,.02,0,0,0,.01,0,.02,0,.33,0,.36.01.68,0l-.1-.02s.04-.06.08-.06c0-.05,0-.09.01-.14,0-.05.01-.12,0-.2h.01c.04-.25.03-.34.02-.38,0-.05-.02-.09.03-.31l-.07.02c-.15-.04.09-.39.03-.64l-.04.09c-.05-.14.21-.39.23-.53.01-.03.02.05.03.09.09-.36-.09-.05-.11-.32.05-.05.13.06.14-.12.04-.09-.16-.53-.07-.78-.04.05-.08.11-.11-.02-.01-.19.15-.52.02-.7.01-.02.02-.03.03-.03-.03-.15-.05-.48-.12-.57.25-.14-.12-.92.11-.91v-.45s.01.01.01.01c.01-.29-.04-.39-.09-.49.02-.07.04-.02.05-.01.05-.42.04-.47-.08-.82l.07-.04c-.04-.1.12-.61.03-1.03,0,0,.02.01.03.05-.09-.47.2-1.12-.06-1.29l-.07-.31c-.02.4-.12-.06-.16.1-.02-.16.08-.41.09-.21v.03c.13.07.04-.5.13-.48,0-.27,0-.54.02-.8,0-.07,0-.13,0-.2,0-.09,0-.19,0-.28,0-.2.01-.4.02-.6-.18,0-.35,0-.53-.01-.16,0-.31,0-.47,0l.08.11h-.26c-.07-.03-.09-.09.09-.09-.1-.06-.31.05-.31.07-.36-.04.14-.13.03-.13h-.15s.03.02.03.02c-.12.04-.13.09-.35.09-.14-.02-.07-.07-.13-.07,0,0-.02-.01-.08,0h-.32s.13.08.13.08c-.14.04-.3,0-.15.09-.22-.15-1.21-.05-1.34-.1-.2.06-.4.06-.64.05.06.02.1.11-.11.1.08-.2-.39-.09-.56-.23.15.09-.6.02-.36.16-.18-.02-.01-.07-.14-.12-.42.08-.93-.05-1.45-.02,0,.03.08.07-.03.1l-.27-.13c-.1.01-.09.15-.28.06.03.02.07.05,0,.06C3.86.06,2.8.29,1.77.05c.14.05.05.06-.06.06.07.01,0,.06.01.1l-.43-.1c-.08.1-.46,0-.51.1l.14-.02c-.18.11.25.25.23.39.2-.13.54.19.87,0,.07.03-.06.05-.02.08.08-.06.19-.07.38-.05l-.02.02c.53-.01.76.05,1.36.09l-.04-.07c.13,0,.16.03.22.05.15-.11-.36,0-.23-.12.17.14.91,0,1.02.16.2,0-.06-.08.14-.08l.05.04.05-.06c.13,0,.2.06.2.1-.03,0-.09.01-.12.01.17.05.47-.02.53,0l-.19-.03c.54-.04,1.2.02,1.72-.07l-.04-.03c.4-.06.32.04.76,0h-.02c.09-.03.2-.04.32-.04-.11.04.21.08.06.12.43-.07.21-.05.5-.17l.07.05c.1-.05.11-.08.32-.09-.18.05.14.08-.06.15.46.12.68-.12.89.05.21-.15-.4-.08-.28-.12-.1-.05.17-.11.32-.1.15,0,.25.19.62.19-.04,0-.04.01-.08.01.14.04.27-.05.44.01.09-.09.22,0,.25-.11l-.34.03c.19-.03.37-.17.69-.1-.02.02-.12.05-.18.07.09.03.18-.02.27.01-.03.12-.41.03-.62.11.1.05.39-.08.29.04.07-.08.17-.08.27-.07.03,0,.05,0,.08,0,.01,0,.03,0,.04,0,.03,0,.06-.01.1-.05-.01.02-.03.05-.04.07.02-.01.08-.04.11-.04-.05.03-.08.06-.12.09.05-.03.08-.03.09,0-.01.03-.03.06-.03.08,0,.02-.01.04,0,.05,0-.06.02-.08.05-.1.03-.02.06-.03.09-.09.02.05.02.1.01.13-.01.04-.04.06-.06.09-.01.01-.03.02-.04.03,0,0-.01,0-.02.01,0,.01-.01.03-.02.04-.02.07-.03.16-.02.3,0-.08.04-.28.07-.17-.01.11-.04.25-.08.31.01.37.07-.06.12.1-.09.13.03.18.06.35h-.07c-.05.42.15.11.09.49l-.1-.16.03.2-.08-.04c.06.22.04.28.02.5.05-.05.13.03.13.22-.04.13-.07-.07-.06.19-.04-.06-.1-.13-.03-.24-.02-.01-.04-.06-.07-.07-.05.14-.01.35-.01.44,0-.04,0-.08.02-.1l.1.39c-.03.06-.05.01-.07-.04,0,.08.04.13.05.25-.06-.03-.12-.02-.15-.18l.06.37s-.07.19-.09.14c-.03.2.11.5.07.77.01.01.02.04.03.1-.01.25-.08.48,0,.78l-.1.17c.02.24.13-.23.17.16.03.28-.09.1-.12.2.05.14.16.38.07.63-.02-.08,0-.15-.01-.23Zm.05,2.9c-.01-.06-.06-.17-.02-.21.08.06.04.11.02.21Zm-1.58,2.36s.11-.01.18.02c-.05,0-.11,0-.18-.02ZM.23,9.63s0,0,0,0c-.03.13-.02.08,0,0Zm.03-.26s-.02-.02-.03-.01c.02.02.02.08.01.14.02-.02.03-.05.02-.13ZM10.48.11l.05.02c-.11.02-.08,0-.05-.02Z"/><path class="cls-1" d="m10.76,11.99s.02.03.02.04c.02-.01.02-.03-.02-.04Z"/><path class="cls-1" d="m11.76,5.02s0,0,0,0c0,0,0,0-.01,0v.02Z"/><path class="cls-1" d="m1.74,11.94c.05.01.08.02.1.04,0-.02-.02-.03-.1-.04Z"/><path class="cls-1" d="m.14,7.99l.02.17c0-.08.01-.11.02-.15-.02,0-.04.04-.04-.02Z"/><path class="cls-1" d="m.58,6.54s0-.05,0-.08h-.03c0,.11.03.18.04.08Z"/><path class="cls-1" d="m.37,7.84c.06-.01.04-.12.03-.23,0,0,0,.01,0,.02-.08-.03-.06.09-.03.21Z"/><path class="cls-1" d="m.4,7.57s0-.07,0-.11c-.03-.01,0,.04,0,.11Z"/><path class="cls-1" d="m.22,9.04c.02-.06-.08-.03-.05-.07-.08-.06.09.37.05.07Z"/><polygon class="cls-1" points=".57 7.74 .5 7.78 .56 7.85 .57 7.74"/><path class="cls-1" d="m.52,8.66l.02-.19s-.02-.02-.03-.05c0,.12-.02.24,0,.24Z"/><path class="cls-1" d="m.51,8.43c0-.06,0-.12-.01-.15,0,.03,0,.1.01.15Z"/><polygon class="cls-1" points=".59 8 .58 8.05 .57 8.18 .59 8"/><path class="cls-1" d="m.5,10.67l.02.2s.04-.03.03-.11c-.02-.05-.03-.12-.05-.09Z"/><path class="cls-1" d="m.71,10.06c-.02.06-.03.06-.06.09h.09s-.04-.09-.04-.09Z"/><path class="cls-1" d="m.73,10.65s.07.3.07.04c-.03-.02-.05-.22-.07-.04Z"/><polygon class="cls-1" points="2.06 12.2 2.01 12.2 2.01 12.35 2.06 12.2"/><path class="cls-1" d="m4.77,11.84c-.24-.04-.06.09-.28.05-.06.04.18.04.12.07.15-.04.22-.02.16-.12Z"/><path class="cls-1" d="m4.61,11.95s-.05.01-.07.02c.04,0,.06-.02.07-.02Z"/><polygon class="cls-1" points="1 .03 .84 0 .94 .05 1 .03"/><path class="cls-1" d="m.7.14l-.04-.1-.09.09s.1-.01.13,0Z"/><path class="cls-1" d="m11.65,10.16h.02s.03-.05.03-.12l-.05.12Z"/><polygon class="cls-1" points="11.72 8.05 11.72 8.09 11.8 8.02 11.72 8.05"/><path class="cls-1" d="m11.61,6.28c0,.07.02.16.01.23-.02-.16.1-.25-.01-.23Z"/></g></svg>